G04 Layer_Physical_Order=2*
G04 Layer_Color=12500520*
%FSLAX25Y25*%
%MOIN*%
G70*
G01*
G75*
%ADD25R,0.06000X0.06000*%
%ADD26C,0.06000*%
%ADD27C,0.20000*%
%ADD28C,0.02400*%
G36*
X444202Y528531D02*
X448372Y527982D01*
X452479Y527072D01*
X456490Y525807D01*
X460377Y524197D01*
X464107Y522255D01*
X467655Y519995D01*
X470992Y517435D01*
X474093Y514593D01*
X474626Y514011D01*
X474278Y513651D01*
X473750Y514102D01*
X472327Y514974D01*
X470786Y515612D01*
X469163Y516002D01*
X467500Y516133D01*
X465837Y516002D01*
X464214Y515612D01*
X462673Y514974D01*
X461250Y514102D01*
X459981Y513019D01*
X458898Y511750D01*
X458026Y510327D01*
X457388Y508786D01*
X456998Y507163D01*
X456867Y505500D01*
X456998Y503837D01*
X457388Y502214D01*
X458026Y500673D01*
X458898Y499250D01*
X459981Y497982D01*
X461250Y496898D01*
X462673Y496026D01*
X464214Y495388D01*
X465837Y494998D01*
X467500Y494867D01*
X469163Y494998D01*
X470786Y495388D01*
X472327Y496026D01*
X473750Y496898D01*
X475019Y497982D01*
X476102Y499250D01*
X476974Y500673D01*
X477612Y502214D01*
X478002Y503837D01*
X478133Y505500D01*
X478002Y507163D01*
X477612Y508786D01*
X476974Y510327D01*
X476267Y511480D01*
X476669Y511782D01*
X476935Y511492D01*
X479495Y508155D01*
X481755Y504607D01*
X483697Y500877D01*
X485307Y496990D01*
X486572Y492979D01*
X487482Y488872D01*
X488031Y484702D01*
X488209Y480627D01*
X488184Y480500D01*
Y365500D01*
X488209Y365373D01*
X488031Y361298D01*
X487482Y357128D01*
X486572Y353021D01*
X485307Y349010D01*
X483697Y345124D01*
X481755Y341393D01*
X479495Y337845D01*
X476935Y334508D01*
X476669Y334218D01*
X476267Y334520D01*
X476974Y335673D01*
X477612Y337214D01*
X478002Y338837D01*
X478133Y340500D01*
X478002Y342163D01*
X477612Y343786D01*
X476974Y345327D01*
X476102Y346750D01*
X475019Y348019D01*
X473750Y349102D01*
X472327Y349974D01*
X470786Y350612D01*
X469163Y351002D01*
X467500Y351133D01*
X465837Y351002D01*
X464214Y350612D01*
X462673Y349974D01*
X461250Y349102D01*
X459981Y348019D01*
X458898Y346750D01*
X458026Y345327D01*
X457388Y343786D01*
X456998Y342163D01*
X456867Y340500D01*
X456998Y338837D01*
X457388Y337214D01*
X458026Y335673D01*
X458898Y334250D01*
X459981Y332981D01*
X461250Y331898D01*
X462673Y331026D01*
X464214Y330388D01*
X465837Y329998D01*
X467500Y329867D01*
X469163Y329998D01*
X470786Y330388D01*
X472327Y331026D01*
X473750Y331898D01*
X474278Y332349D01*
X474626Y331989D01*
X474093Y331407D01*
X470992Y328565D01*
X467655Y326005D01*
X464107Y323745D01*
X460377Y321803D01*
X456490Y320193D01*
X452479Y318928D01*
X448372Y318018D01*
X444202Y317469D01*
X440127Y317291D01*
X440000Y317316D01*
X210546D01*
X210487Y317816D01*
X210786Y317888D01*
X212327Y318526D01*
X213750Y319398D01*
X215019Y320481D01*
X216102Y321750D01*
X216974Y323173D01*
X217612Y324714D01*
X218002Y326337D01*
X218133Y328000D01*
X218002Y329663D01*
X217612Y331286D01*
X216974Y332827D01*
X216102Y334250D01*
X215019Y335519D01*
X213750Y336602D01*
X212327Y337474D01*
X210786Y338112D01*
X209163Y338502D01*
X207500Y338633D01*
X205837Y338502D01*
X204214Y338112D01*
X202673Y337474D01*
X201250Y336602D01*
X199981Y335519D01*
X198898Y334250D01*
X198026Y332827D01*
X197388Y331286D01*
X196998Y329663D01*
X196867Y328000D01*
X196998Y326337D01*
X197388Y324714D01*
X198026Y323173D01*
X198898Y321750D01*
X199981Y320481D01*
X201250Y319398D01*
X202673Y318526D01*
X204214Y317888D01*
X204513Y317816D01*
X204453Y317316D01*
X175000D01*
X174869Y317290D01*
X171969Y317480D01*
X168991Y318073D01*
X166115Y319049D01*
X163391Y320392D01*
X160865Y322079D01*
X158582Y324082D01*
X156579Y326365D01*
X154892Y328891D01*
X153549Y331615D01*
X152573Y334491D01*
X151980Y337469D01*
X151790Y340369D01*
X151816Y340500D01*
Y396184D01*
X235000D01*
X235695Y396322D01*
X236284Y396716D01*
X236678Y397305D01*
X236816Y398000D01*
Y468000D01*
X236678Y468695D01*
X236284Y469284D01*
X235695Y469678D01*
X235000Y469816D01*
X179316D01*
Y528684D01*
X204453D01*
X204513Y528184D01*
X204214Y528112D01*
X202673Y527474D01*
X201250Y526602D01*
X199981Y525519D01*
X198898Y524250D01*
X198026Y522827D01*
X197388Y521286D01*
X196998Y519663D01*
X196867Y518000D01*
X196998Y516337D01*
X197388Y514714D01*
X198026Y513173D01*
X198898Y511750D01*
X199981Y510482D01*
X201250Y509398D01*
X202673Y508526D01*
X204214Y507888D01*
X205837Y507498D01*
X207500Y507367D01*
X209163Y507498D01*
X210786Y507888D01*
X212327Y508526D01*
X213750Y509398D01*
X215019Y510482D01*
X216102Y511750D01*
X216974Y513173D01*
X217612Y514714D01*
X218002Y516337D01*
X218133Y518000D01*
X218002Y519663D01*
X217612Y521286D01*
X216974Y522827D01*
X216102Y524250D01*
X215019Y525519D01*
X213750Y526602D01*
X212327Y527474D01*
X210786Y528112D01*
X210487Y528184D01*
X210546Y528684D01*
X440000D01*
X440127Y528709D01*
X444202Y528531D01*
D02*
G37*
%LPC*%
G36*
X483766Y402539D02*
X482326D01*
X482382Y402259D01*
X482824Y401597D01*
X483485Y401155D01*
X483766Y401100D01*
Y402539D01*
D02*
G37*
G36*
X486205D02*
X484766D01*
Y401100D01*
X485046Y401155D01*
X485708Y401597D01*
X486150Y402259D01*
X486205Y402539D01*
D02*
G37*
G36*
X445463Y400358D02*
X444024D01*
Y398919D01*
X444304Y398974D01*
X444966Y399416D01*
X445408Y400078D01*
X445463Y400358D01*
D02*
G37*
G36*
X287957Y371440D02*
Y370000D01*
X289396D01*
X289341Y370280D01*
X288899Y370942D01*
X288237Y371384D01*
X287957Y371440D01*
D02*
G37*
G36*
X443024Y400358D02*
X441584D01*
X441640Y400078D01*
X442082Y399416D01*
X442743Y398974D01*
X443024Y398919D01*
Y400358D01*
D02*
G37*
G36*
Y402798D02*
X442743Y402742D01*
X442082Y402300D01*
X441640Y401639D01*
X441584Y401358D01*
X443024D01*
Y402798D01*
D02*
G37*
G36*
X483766Y404979D02*
X483485Y404923D01*
X482824Y404481D01*
X482382Y403820D01*
X482326Y403539D01*
X483766D01*
Y404979D01*
D02*
G37*
G36*
X484766D02*
Y403539D01*
X486205D01*
X486150Y403820D01*
X485708Y404481D01*
X485046Y404923D01*
X484766Y404979D01*
D02*
G37*
G36*
X476166Y404226D02*
X474726D01*
Y402787D01*
X475007Y402842D01*
X475668Y403285D01*
X476110Y403946D01*
X476166Y404226D01*
D02*
G37*
G36*
X444024Y402798D02*
Y401358D01*
X445463D01*
X445408Y401639D01*
X444966Y402300D01*
X444304Y402742D01*
X444024Y402798D01*
D02*
G37*
G36*
X473726Y404226D02*
X472287D01*
X472342Y403946D01*
X472785Y403285D01*
X473446Y402842D01*
X473726Y402787D01*
Y404226D01*
D02*
G37*
G36*
X286957Y371440D02*
X286676Y371384D01*
X286015Y370942D01*
X285573Y370280D01*
X285517Y370000D01*
X286957D01*
Y371440D01*
D02*
G37*
G36*
X227000Y336969D02*
X226456Y336897D01*
X225483Y336494D01*
X224647Y335853D01*
X224006Y335017D01*
X223603Y334044D01*
X223531Y333500D01*
X227000D01*
Y336969D01*
D02*
G37*
G36*
X228000D02*
Y333500D01*
X231469D01*
X231397Y334044D01*
X230994Y335017D01*
X230353Y335853D01*
X229517Y336494D01*
X228544Y336897D01*
X228000Y336969D01*
D02*
G37*
G36*
X447500Y336631D02*
X446560Y336507D01*
X445684Y336145D01*
X444932Y335567D01*
X444355Y334816D01*
X443993Y333940D01*
X443869Y333000D01*
X443993Y332060D01*
X444355Y331185D01*
X444932Y330433D01*
X445684Y329855D01*
X446560Y329493D01*
X447500Y329369D01*
X448440Y329493D01*
X449316Y329855D01*
X450068Y330433D01*
X450645Y331185D01*
X451007Y332060D01*
X451131Y333000D01*
X451007Y333940D01*
X450645Y334816D01*
X450068Y335567D01*
X449316Y336145D01*
X448440Y336507D01*
X447500Y336631D01*
D02*
G37*
G36*
X427500D02*
X426560Y336507D01*
X425684Y336145D01*
X424932Y335567D01*
X424355Y334816D01*
X423993Y333940D01*
X423869Y333000D01*
X423993Y332060D01*
X424355Y331185D01*
X424932Y330433D01*
X425684Y329855D01*
X426560Y329493D01*
X427500Y329369D01*
X428440Y329493D01*
X429316Y329855D01*
X430068Y330433D01*
X430645Y331185D01*
X431007Y332060D01*
X431131Y333000D01*
X431007Y333940D01*
X430645Y334816D01*
X430068Y335567D01*
X429316Y336145D01*
X428440Y336507D01*
X427500Y336631D01*
D02*
G37*
G36*
X437500D02*
X436560Y336507D01*
X435684Y336145D01*
X434932Y335567D01*
X434355Y334816D01*
X433993Y333940D01*
X433869Y333000D01*
X433993Y332060D01*
X434355Y331185D01*
X434932Y330433D01*
X435684Y329855D01*
X436560Y329493D01*
X437500Y329369D01*
X438440Y329493D01*
X439316Y329855D01*
X440068Y330433D01*
X440645Y331185D01*
X441007Y332060D01*
X441131Y333000D01*
X441007Y333940D01*
X440645Y334816D01*
X440068Y335567D01*
X439316Y336145D01*
X438440Y336507D01*
X437500Y336631D01*
D02*
G37*
G36*
X269854Y351500D02*
X268414D01*
X268470Y351219D01*
X268912Y350558D01*
X269574Y350116D01*
X269854Y350060D01*
Y351500D01*
D02*
G37*
G36*
X286957Y369000D02*
X285517D01*
X285573Y368720D01*
X286015Y368058D01*
X286676Y367616D01*
X286957Y367560D01*
Y369000D01*
D02*
G37*
G36*
X289396D02*
X287957D01*
Y367560D01*
X288237Y367616D01*
X288899Y368058D01*
X289341Y368720D01*
X289396Y369000D01*
D02*
G37*
G36*
X270854Y353939D02*
Y352500D01*
X272294D01*
X272238Y352780D01*
X271796Y353442D01*
X271134Y353884D01*
X270854Y353939D01*
D02*
G37*
G36*
X272294Y351500D02*
X270854D01*
Y350060D01*
X271134Y350116D01*
X271796Y350558D01*
X272238Y351219D01*
X272294Y351500D01*
D02*
G37*
G36*
X269854Y353939D02*
X269574Y353884D01*
X268912Y353442D01*
X268470Y352780D01*
X268414Y352500D01*
X269854D01*
Y353939D01*
D02*
G37*
G36*
X456081Y413626D02*
X454642D01*
Y412186D01*
X454922Y412242D01*
X455584Y412684D01*
X456026Y413346D01*
X456081Y413626D01*
D02*
G37*
G36*
X400500Y415396D02*
X400220Y415341D01*
X399558Y414899D01*
X399116Y414237D01*
X399060Y413957D01*
X400500D01*
Y415396D01*
D02*
G37*
G36*
X401500D02*
Y413957D01*
X402940D01*
X402884Y414237D01*
X402442Y414899D01*
X401780Y415341D01*
X401500Y415396D01*
D02*
G37*
G36*
X408500Y412957D02*
X407060D01*
X407116Y412676D01*
X407558Y412015D01*
X408220Y411573D01*
X408500Y411517D01*
Y412957D01*
D02*
G37*
G36*
X410940D02*
X409500D01*
Y411517D01*
X409780Y411573D01*
X410442Y412015D01*
X410884Y412676D01*
X410940Y412957D01*
D02*
G37*
G36*
X453642Y413626D02*
X452202D01*
X452258Y413346D01*
X452700Y412684D01*
X453361Y412242D01*
X453642Y412186D01*
Y413626D01*
D02*
G37*
G36*
X421358Y416776D02*
X419918D01*
X419974Y416495D01*
X420416Y415834D01*
X421078Y415392D01*
X421358Y415336D01*
Y416776D01*
D02*
G37*
G36*
X423798D02*
X422358D01*
Y415336D01*
X422639Y415392D01*
X423300Y415834D01*
X423742Y416495D01*
X423798Y416776D01*
D02*
G37*
G36*
Y419925D02*
X419918D01*
X419974Y419645D01*
X420261Y419215D01*
X420375Y418850D01*
X420261Y418485D01*
X419974Y418056D01*
X419918Y417776D01*
X423798D01*
X423742Y418056D01*
X423455Y418485D01*
X423342Y418850D01*
X423455Y419215D01*
X423742Y419645D01*
X423798Y419925D01*
D02*
G37*
G36*
X408500Y415396D02*
X408220Y415341D01*
X407558Y414899D01*
X407116Y414237D01*
X407060Y413957D01*
X408500D01*
Y415396D01*
D02*
G37*
G36*
X409500D02*
Y413957D01*
X410940D01*
X410884Y414237D01*
X410442Y414899D01*
X409780Y415341D01*
X409500Y415396D01*
D02*
G37*
G36*
X456081Y416776D02*
X452202D01*
X452258Y416495D01*
X452545Y416066D01*
X452658Y415701D01*
X452545Y415336D01*
X452258Y414906D01*
X452202Y414626D01*
X456081D01*
X456026Y414906D01*
X455739Y415336D01*
X455625Y415701D01*
X455739Y416066D01*
X456026Y416495D01*
X456081Y416776D01*
D02*
G37*
G36*
X471166Y410295D02*
X469726D01*
Y408855D01*
X470007Y408911D01*
X470668Y409353D01*
X471110Y410015D01*
X471166Y410295D01*
D02*
G37*
G36*
X420976Y410358D02*
X419537D01*
X419592Y410078D01*
X420035Y409416D01*
X420696Y408974D01*
X420976Y408919D01*
Y410358D01*
D02*
G37*
G36*
X423416D02*
X421976D01*
Y408919D01*
X422257Y408974D01*
X422918Y409416D01*
X423360Y410078D01*
X423416Y410358D01*
D02*
G37*
G36*
X473726Y406666D02*
X473446Y406610D01*
X472785Y406168D01*
X472342Y405507D01*
X472287Y405226D01*
X473726D01*
Y406666D01*
D02*
G37*
G36*
X474726D02*
Y405226D01*
X476166D01*
X476110Y405507D01*
X475668Y406168D01*
X475007Y406610D01*
X474726Y406666D01*
D02*
G37*
G36*
X468726Y410295D02*
X467287D01*
X467342Y410015D01*
X467785Y409353D01*
X468446Y408911D01*
X468726Y408855D01*
Y410295D01*
D02*
G37*
G36*
X421976Y412798D02*
Y411358D01*
X423416D01*
X423360Y411639D01*
X422918Y412300D01*
X422257Y412742D01*
X421976Y412798D01*
D02*
G37*
G36*
X400500Y412957D02*
X399060D01*
X399116Y412676D01*
X399558Y412015D01*
X400220Y411573D01*
X400500Y411517D01*
Y412957D01*
D02*
G37*
G36*
X402940D02*
X401500D01*
Y411517D01*
X401780Y411573D01*
X402442Y412015D01*
X402884Y412676D01*
X402940Y412957D01*
D02*
G37*
G36*
X468726Y412735D02*
X468446Y412679D01*
X467785Y412237D01*
X467342Y411576D01*
X467287Y411295D01*
X468726D01*
Y412735D01*
D02*
G37*
G36*
X469726D02*
Y411295D01*
X471166D01*
X471110Y411576D01*
X470668Y412237D01*
X470007Y412679D01*
X469726Y412735D01*
D02*
G37*
G36*
X420976Y412798D02*
X420696Y412742D01*
X420035Y412300D01*
X419592Y411639D01*
X419537Y411358D01*
X420976D01*
Y412798D01*
D02*
G37*
G36*
X367500Y326631D02*
X366560Y326507D01*
X365685Y326145D01*
X364932Y325568D01*
X364355Y324816D01*
X363993Y323940D01*
X363869Y323000D01*
X363993Y322060D01*
X364355Y321184D01*
X364932Y320432D01*
X365685Y319855D01*
X366560Y319493D01*
X367500Y319369D01*
X368440Y319493D01*
X369316Y319855D01*
X370068Y320432D01*
X370645Y321184D01*
X371007Y322060D01*
X371131Y323000D01*
X371007Y323940D01*
X370645Y324816D01*
X370068Y325568D01*
X369316Y326145D01*
X368440Y326507D01*
X367500Y326631D01*
D02*
G37*
G36*
X377500D02*
X376560Y326507D01*
X375684Y326145D01*
X374933Y325568D01*
X374355Y324816D01*
X373993Y323940D01*
X373869Y323000D01*
X373993Y322060D01*
X374355Y321184D01*
X374933Y320432D01*
X375684Y319855D01*
X376560Y319493D01*
X377500Y319369D01*
X378440Y319493D01*
X379315Y319855D01*
X380067Y320432D01*
X380645Y321184D01*
X381007Y322060D01*
X381131Y323000D01*
X381007Y323940D01*
X380645Y324816D01*
X380067Y325568D01*
X379315Y326145D01*
X378440Y326507D01*
X377500Y326631D01*
D02*
G37*
G36*
X357500D02*
X356560Y326507D01*
X355684Y326145D01*
X354932Y325568D01*
X354355Y324816D01*
X353993Y323940D01*
X353869Y323000D01*
X353993Y322060D01*
X354355Y321184D01*
X354932Y320432D01*
X355684Y319855D01*
X356560Y319493D01*
X357500Y319369D01*
X358440Y319493D01*
X359315Y319855D01*
X360068Y320432D01*
X360645Y321184D01*
X361007Y322060D01*
X361131Y323000D01*
X361007Y323940D01*
X360645Y324816D01*
X360068Y325568D01*
X359315Y326145D01*
X358440Y326507D01*
X357500Y326631D01*
D02*
G37*
G36*
X337500D02*
X336560Y326507D01*
X335684Y326145D01*
X334932Y325568D01*
X334355Y324816D01*
X333993Y323940D01*
X333869Y323000D01*
X333993Y322060D01*
X334355Y321184D01*
X334932Y320432D01*
X335684Y319855D01*
X336560Y319493D01*
X337500Y319369D01*
X338440Y319493D01*
X339316Y319855D01*
X340068Y320432D01*
X340645Y321184D01*
X341007Y322060D01*
X341131Y323000D01*
X341007Y323940D01*
X340645Y324816D01*
X340068Y325568D01*
X339316Y326145D01*
X338440Y326507D01*
X337500Y326631D01*
D02*
G37*
G36*
X347500D02*
X346560Y326507D01*
X345685Y326145D01*
X344933Y325568D01*
X344355Y324816D01*
X343993Y323940D01*
X343869Y323000D01*
X343993Y322060D01*
X344355Y321184D01*
X344933Y320432D01*
X345685Y319855D01*
X346560Y319493D01*
X347500Y319369D01*
X348440Y319493D01*
X349316Y319855D01*
X350067Y320432D01*
X350645Y321184D01*
X351007Y322060D01*
X351131Y323000D01*
X351007Y323940D01*
X350645Y324816D01*
X350067Y325568D01*
X349316Y326145D01*
X348440Y326507D01*
X347500Y326631D01*
D02*
G37*
G36*
X387500D02*
X386560Y326507D01*
X385684Y326145D01*
X384932Y325568D01*
X384355Y324816D01*
X383993Y323940D01*
X383869Y323000D01*
X383993Y322060D01*
X384355Y321184D01*
X384932Y320432D01*
X385684Y319855D01*
X386560Y319493D01*
X387500Y319369D01*
X388440Y319493D01*
X389316Y319855D01*
X390068Y320432D01*
X390645Y321184D01*
X391007Y322060D01*
X391131Y323000D01*
X391007Y323940D01*
X390645Y324816D01*
X390068Y325568D01*
X389316Y326145D01*
X388440Y326507D01*
X387500Y326631D01*
D02*
G37*
G36*
X427500D02*
X426560Y326507D01*
X425684Y326145D01*
X424932Y325568D01*
X424355Y324816D01*
X423993Y323940D01*
X423869Y323000D01*
X423993Y322060D01*
X424355Y321184D01*
X424932Y320432D01*
X425684Y319855D01*
X426560Y319493D01*
X427500Y319369D01*
X428440Y319493D01*
X429316Y319855D01*
X430068Y320432D01*
X430645Y321184D01*
X431007Y322060D01*
X431131Y323000D01*
X431007Y323940D01*
X430645Y324816D01*
X430068Y325568D01*
X429316Y326145D01*
X428440Y326507D01*
X427500Y326631D01*
D02*
G37*
G36*
X437500D02*
X436560Y326507D01*
X435684Y326145D01*
X434932Y325568D01*
X434355Y324816D01*
X433993Y323940D01*
X433869Y323000D01*
X433993Y322060D01*
X434355Y321184D01*
X434932Y320432D01*
X435684Y319855D01*
X436560Y319493D01*
X437500Y319369D01*
X438440Y319493D01*
X439316Y319855D01*
X440068Y320432D01*
X440645Y321184D01*
X441007Y322060D01*
X441131Y323000D01*
X441007Y323940D01*
X440645Y324816D01*
X440068Y325568D01*
X439316Y326145D01*
X438440Y326507D01*
X437500Y326631D01*
D02*
G37*
G36*
X417500D02*
X416560Y326507D01*
X415685Y326145D01*
X414932Y325568D01*
X414355Y324816D01*
X413993Y323940D01*
X413869Y323000D01*
X413993Y322060D01*
X414355Y321184D01*
X414932Y320432D01*
X415685Y319855D01*
X416560Y319493D01*
X417500Y319369D01*
X418440Y319493D01*
X419315Y319855D01*
X420068Y320432D01*
X420645Y321184D01*
X421007Y322060D01*
X421131Y323000D01*
X421007Y323940D01*
X420645Y324816D01*
X420068Y325568D01*
X419315Y326145D01*
X418440Y326507D01*
X417500Y326631D01*
D02*
G37*
G36*
X397500D02*
X396560Y326507D01*
X395685Y326145D01*
X394933Y325568D01*
X394355Y324816D01*
X393993Y323940D01*
X393869Y323000D01*
X393993Y322060D01*
X394355Y321184D01*
X394933Y320432D01*
X395685Y319855D01*
X396560Y319493D01*
X397500Y319369D01*
X398440Y319493D01*
X399316Y319855D01*
X400068Y320432D01*
X400645Y321184D01*
X401007Y322060D01*
X401131Y323000D01*
X401007Y323940D01*
X400645Y324816D01*
X400068Y325568D01*
X399316Y326145D01*
X398440Y326507D01*
X397500Y326631D01*
D02*
G37*
G36*
X407500D02*
X406560Y326507D01*
X405685Y326145D01*
X404932Y325568D01*
X404355Y324816D01*
X403993Y323940D01*
X403869Y323000D01*
X403993Y322060D01*
X404355Y321184D01*
X404932Y320432D01*
X405685Y319855D01*
X406560Y319493D01*
X407500Y319369D01*
X408440Y319493D01*
X409315Y319855D01*
X410068Y320432D01*
X410645Y321184D01*
X411007Y322060D01*
X411131Y323000D01*
X411007Y323940D01*
X410645Y324816D01*
X410068Y325568D01*
X409315Y326145D01*
X408440Y326507D01*
X407500Y326631D01*
D02*
G37*
G36*
X327500D02*
X326560Y326507D01*
X325684Y326145D01*
X324933Y325568D01*
X324355Y324816D01*
X323993Y323940D01*
X323869Y323000D01*
X323993Y322060D01*
X324355Y321184D01*
X324933Y320432D01*
X325684Y319855D01*
X326560Y319493D01*
X327500Y319369D01*
X328440Y319493D01*
X329315Y319855D01*
X330067Y320432D01*
X330645Y321184D01*
X331007Y322060D01*
X331131Y323000D01*
X331007Y323940D01*
X330645Y324816D01*
X330067Y325568D01*
X329315Y326145D01*
X328440Y326507D01*
X327500Y326631D01*
D02*
G37*
G36*
X247500D02*
X246560Y326507D01*
X245685Y326145D01*
X244933Y325568D01*
X244355Y324816D01*
X243993Y323940D01*
X243869Y323000D01*
X243993Y322060D01*
X244355Y321184D01*
X244933Y320432D01*
X245685Y319855D01*
X246560Y319493D01*
X247500Y319369D01*
X248440Y319493D01*
X249316Y319855D01*
X250067Y320432D01*
X250645Y321184D01*
X251007Y322060D01*
X251131Y323000D01*
X251007Y323940D01*
X250645Y324816D01*
X250067Y325568D01*
X249316Y326145D01*
X248440Y326507D01*
X247500Y326631D01*
D02*
G37*
G36*
X257500D02*
X256560Y326507D01*
X255684Y326145D01*
X254932Y325568D01*
X254355Y324816D01*
X253993Y323940D01*
X253869Y323000D01*
X253993Y322060D01*
X254355Y321184D01*
X254932Y320432D01*
X255684Y319855D01*
X256560Y319493D01*
X257500Y319369D01*
X258440Y319493D01*
X259315Y319855D01*
X260068Y320432D01*
X260645Y321184D01*
X261007Y322060D01*
X261131Y323000D01*
X261007Y323940D01*
X260645Y324816D01*
X260068Y325568D01*
X259315Y326145D01*
X258440Y326507D01*
X257500Y326631D01*
D02*
G37*
G36*
X237500D02*
X236560Y326507D01*
X235684Y326145D01*
X234932Y325568D01*
X234355Y324816D01*
X233993Y323940D01*
X233869Y323000D01*
X233993Y322060D01*
X234355Y321184D01*
X234932Y320432D01*
X235684Y319855D01*
X236560Y319493D01*
X237500Y319369D01*
X238440Y319493D01*
X239316Y319855D01*
X240068Y320432D01*
X240645Y321184D01*
X241007Y322060D01*
X241131Y323000D01*
X241007Y323940D01*
X240645Y324816D01*
X240068Y325568D01*
X239316Y326145D01*
X238440Y326507D01*
X237500Y326631D01*
D02*
G37*
G36*
X227000Y322500D02*
X223500D01*
Y319000D01*
X227000D01*
Y322500D01*
D02*
G37*
G36*
X231500D02*
X228000D01*
Y319000D01*
X231500D01*
Y322500D01*
D02*
G37*
G36*
X267500Y326631D02*
X266560Y326507D01*
X265685Y326145D01*
X264932Y325568D01*
X264355Y324816D01*
X263993Y323940D01*
X263869Y323000D01*
X263993Y322060D01*
X264355Y321184D01*
X264932Y320432D01*
X265685Y319855D01*
X266560Y319493D01*
X267500Y319369D01*
X268440Y319493D01*
X269316Y319855D01*
X270068Y320432D01*
X270645Y321184D01*
X271007Y322060D01*
X271131Y323000D01*
X271007Y323940D01*
X270645Y324816D01*
X270068Y325568D01*
X269316Y326145D01*
X268440Y326507D01*
X267500Y326631D01*
D02*
G37*
G36*
X307500D02*
X306560Y326507D01*
X305684Y326145D01*
X304932Y325568D01*
X304355Y324816D01*
X303993Y323940D01*
X303869Y323000D01*
X303993Y322060D01*
X304355Y321184D01*
X304932Y320432D01*
X305684Y319855D01*
X306560Y319493D01*
X307500Y319369D01*
X308440Y319493D01*
X309315Y319855D01*
X310068Y320432D01*
X310645Y321184D01*
X311007Y322060D01*
X311131Y323000D01*
X311007Y323940D01*
X310645Y324816D01*
X310068Y325568D01*
X309315Y326145D01*
X308440Y326507D01*
X307500Y326631D01*
D02*
G37*
G36*
X317500D02*
X316560Y326507D01*
X315685Y326145D01*
X314932Y325568D01*
X314355Y324816D01*
X313993Y323940D01*
X313869Y323000D01*
X313993Y322060D01*
X314355Y321184D01*
X314932Y320432D01*
X315685Y319855D01*
X316560Y319493D01*
X317500Y319369D01*
X318440Y319493D01*
X319316Y319855D01*
X320068Y320432D01*
X320645Y321184D01*
X321007Y322060D01*
X321131Y323000D01*
X321007Y323940D01*
X320645Y324816D01*
X320068Y325568D01*
X319316Y326145D01*
X318440Y326507D01*
X317500Y326631D01*
D02*
G37*
G36*
X297500D02*
X296560Y326507D01*
X295685Y326145D01*
X294933Y325568D01*
X294355Y324816D01*
X293993Y323940D01*
X293869Y323000D01*
X293993Y322060D01*
X294355Y321184D01*
X294933Y320432D01*
X295685Y319855D01*
X296560Y319493D01*
X297500Y319369D01*
X298440Y319493D01*
X299316Y319855D01*
X300067Y320432D01*
X300645Y321184D01*
X301007Y322060D01*
X301131Y323000D01*
X301007Y323940D01*
X300645Y324816D01*
X300067Y325568D01*
X299316Y326145D01*
X298440Y326507D01*
X297500Y326631D01*
D02*
G37*
G36*
X277500D02*
X276560Y326507D01*
X275684Y326145D01*
X274933Y325568D01*
X274355Y324816D01*
X273993Y323940D01*
X273869Y323000D01*
X273993Y322060D01*
X274355Y321184D01*
X274933Y320432D01*
X275684Y319855D01*
X276560Y319493D01*
X277500Y319369D01*
X278440Y319493D01*
X279315Y319855D01*
X280067Y320432D01*
X280645Y321184D01*
X281007Y322060D01*
X281131Y323000D01*
X281007Y323940D01*
X280645Y324816D01*
X280067Y325568D01*
X279315Y326145D01*
X278440Y326507D01*
X277500Y326631D01*
D02*
G37*
G36*
X287500D02*
X286560Y326507D01*
X285684Y326145D01*
X284932Y325568D01*
X284355Y324816D01*
X283993Y323940D01*
X283869Y323000D01*
X283993Y322060D01*
X284355Y321184D01*
X284932Y320432D01*
X285684Y319855D01*
X286560Y319493D01*
X287500Y319369D01*
X288440Y319493D01*
X289316Y319855D01*
X290068Y320432D01*
X290645Y321184D01*
X291007Y322060D01*
X291131Y323000D01*
X291007Y323940D01*
X290645Y324816D01*
X290068Y325568D01*
X289316Y326145D01*
X288440Y326507D01*
X287500Y326631D01*
D02*
G37*
G36*
X447500D02*
X446560Y326507D01*
X445684Y326145D01*
X444932Y325568D01*
X444355Y324816D01*
X443993Y323940D01*
X443869Y323000D01*
X443993Y322060D01*
X444355Y321184D01*
X444932Y320432D01*
X445684Y319855D01*
X446560Y319493D01*
X447500Y319369D01*
X448440Y319493D01*
X449316Y319855D01*
X450068Y320432D01*
X450645Y321184D01*
X451007Y322060D01*
X451131Y323000D01*
X451007Y323940D01*
X450645Y324816D01*
X450068Y325568D01*
X449316Y326145D01*
X448440Y326507D01*
X447500Y326631D01*
D02*
G37*
G36*
X347500Y336631D02*
X346560Y336507D01*
X345685Y336145D01*
X344933Y335567D01*
X344355Y334816D01*
X343993Y333940D01*
X343869Y333000D01*
X343993Y332060D01*
X344355Y331185D01*
X344933Y330433D01*
X345685Y329855D01*
X346560Y329493D01*
X347500Y329369D01*
X348440Y329493D01*
X349316Y329855D01*
X350067Y330433D01*
X350645Y331185D01*
X351007Y332060D01*
X351131Y333000D01*
X351007Y333940D01*
X350645Y334816D01*
X350067Y335567D01*
X349316Y336145D01*
X348440Y336507D01*
X347500Y336631D01*
D02*
G37*
G36*
X357500D02*
X356560Y336507D01*
X355684Y336145D01*
X354932Y335567D01*
X354355Y334816D01*
X353993Y333940D01*
X353869Y333000D01*
X353993Y332060D01*
X354355Y331185D01*
X354932Y330433D01*
X355684Y329855D01*
X356560Y329493D01*
X357500Y329369D01*
X358440Y329493D01*
X359315Y329855D01*
X360068Y330433D01*
X360645Y331185D01*
X361007Y332060D01*
X361131Y333000D01*
X361007Y333940D01*
X360645Y334816D01*
X360068Y335567D01*
X359315Y336145D01*
X358440Y336507D01*
X357500Y336631D01*
D02*
G37*
G36*
X337500D02*
X336560Y336507D01*
X335684Y336145D01*
X334932Y335567D01*
X334355Y334816D01*
X333993Y333940D01*
X333869Y333000D01*
X333993Y332060D01*
X334355Y331185D01*
X334932Y330433D01*
X335684Y329855D01*
X336560Y329493D01*
X337500Y329369D01*
X338440Y329493D01*
X339316Y329855D01*
X340068Y330433D01*
X340645Y331185D01*
X341007Y332060D01*
X341131Y333000D01*
X341007Y333940D01*
X340645Y334816D01*
X340068Y335567D01*
X339316Y336145D01*
X338440Y336507D01*
X337500Y336631D01*
D02*
G37*
G36*
X317500D02*
X316560Y336507D01*
X315685Y336145D01*
X314932Y335567D01*
X314355Y334816D01*
X313993Y333940D01*
X313869Y333000D01*
X313993Y332060D01*
X314355Y331185D01*
X314932Y330433D01*
X315685Y329855D01*
X316560Y329493D01*
X317500Y329369D01*
X318440Y329493D01*
X319316Y329855D01*
X320068Y330433D01*
X320645Y331185D01*
X321007Y332060D01*
X321131Y333000D01*
X321007Y333940D01*
X320645Y334816D01*
X320068Y335567D01*
X319316Y336145D01*
X318440Y336507D01*
X317500Y336631D01*
D02*
G37*
G36*
X327500D02*
X326560Y336507D01*
X325684Y336145D01*
X324933Y335567D01*
X324355Y334816D01*
X323993Y333940D01*
X323869Y333000D01*
X323993Y332060D01*
X324355Y331185D01*
X324933Y330433D01*
X325684Y329855D01*
X326560Y329493D01*
X327500Y329369D01*
X328440Y329493D01*
X329315Y329855D01*
X330067Y330433D01*
X330645Y331185D01*
X331007Y332060D01*
X331131Y333000D01*
X331007Y333940D01*
X330645Y334816D01*
X330067Y335567D01*
X329315Y336145D01*
X328440Y336507D01*
X327500Y336631D01*
D02*
G37*
G36*
X367500D02*
X366560Y336507D01*
X365685Y336145D01*
X364932Y335567D01*
X364355Y334816D01*
X363993Y333940D01*
X363869Y333000D01*
X363993Y332060D01*
X364355Y331185D01*
X364932Y330433D01*
X365685Y329855D01*
X366560Y329493D01*
X367500Y329369D01*
X368440Y329493D01*
X369316Y329855D01*
X370068Y330433D01*
X370645Y331185D01*
X371007Y332060D01*
X371131Y333000D01*
X371007Y333940D01*
X370645Y334816D01*
X370068Y335567D01*
X369316Y336145D01*
X368440Y336507D01*
X367500Y336631D01*
D02*
G37*
G36*
X407500D02*
X406560Y336507D01*
X405685Y336145D01*
X404932Y335567D01*
X404355Y334816D01*
X403993Y333940D01*
X403869Y333000D01*
X403993Y332060D01*
X404355Y331185D01*
X404932Y330433D01*
X405685Y329855D01*
X406560Y329493D01*
X407500Y329369D01*
X408440Y329493D01*
X409315Y329855D01*
X410068Y330433D01*
X410645Y331185D01*
X411007Y332060D01*
X411131Y333000D01*
X411007Y333940D01*
X410645Y334816D01*
X410068Y335567D01*
X409315Y336145D01*
X408440Y336507D01*
X407500Y336631D01*
D02*
G37*
G36*
X417500D02*
X416560Y336507D01*
X415685Y336145D01*
X414932Y335567D01*
X414355Y334816D01*
X413993Y333940D01*
X413869Y333000D01*
X413993Y332060D01*
X414355Y331185D01*
X414932Y330433D01*
X415685Y329855D01*
X416560Y329493D01*
X417500Y329369D01*
X418440Y329493D01*
X419315Y329855D01*
X420068Y330433D01*
X420645Y331185D01*
X421007Y332060D01*
X421131Y333000D01*
X421007Y333940D01*
X420645Y334816D01*
X420068Y335567D01*
X419315Y336145D01*
X418440Y336507D01*
X417500Y336631D01*
D02*
G37*
G36*
X397500D02*
X396560Y336507D01*
X395685Y336145D01*
X394933Y335567D01*
X394355Y334816D01*
X393993Y333940D01*
X393869Y333000D01*
X393993Y332060D01*
X394355Y331185D01*
X394933Y330433D01*
X395685Y329855D01*
X396560Y329493D01*
X397500Y329369D01*
X398440Y329493D01*
X399316Y329855D01*
X400068Y330433D01*
X400645Y331185D01*
X401007Y332060D01*
X401131Y333000D01*
X401007Y333940D01*
X400645Y334816D01*
X400068Y335567D01*
X399316Y336145D01*
X398440Y336507D01*
X397500Y336631D01*
D02*
G37*
G36*
X377500D02*
X376560Y336507D01*
X375684Y336145D01*
X374933Y335567D01*
X374355Y334816D01*
X373993Y333940D01*
X373869Y333000D01*
X373993Y332060D01*
X374355Y331185D01*
X374933Y330433D01*
X375684Y329855D01*
X376560Y329493D01*
X377500Y329369D01*
X378440Y329493D01*
X379315Y329855D01*
X380067Y330433D01*
X380645Y331185D01*
X381007Y332060D01*
X381131Y333000D01*
X381007Y333940D01*
X380645Y334816D01*
X380067Y335567D01*
X379315Y336145D01*
X378440Y336507D01*
X377500Y336631D01*
D02*
G37*
G36*
X387500D02*
X386560Y336507D01*
X385684Y336145D01*
X384932Y335567D01*
X384355Y334816D01*
X383993Y333940D01*
X383869Y333000D01*
X383993Y332060D01*
X384355Y331185D01*
X384932Y330433D01*
X385684Y329855D01*
X386560Y329493D01*
X387500Y329369D01*
X388440Y329493D01*
X389316Y329855D01*
X390068Y330433D01*
X390645Y331185D01*
X391007Y332060D01*
X391131Y333000D01*
X391007Y333940D01*
X390645Y334816D01*
X390068Y335567D01*
X389316Y336145D01*
X388440Y336507D01*
X387500Y336631D01*
D02*
G37*
G36*
X307500D02*
X306560Y336507D01*
X305684Y336145D01*
X304932Y335567D01*
X304355Y334816D01*
X303993Y333940D01*
X303869Y333000D01*
X303993Y332060D01*
X304355Y331185D01*
X304932Y330433D01*
X305684Y329855D01*
X306560Y329493D01*
X307500Y329369D01*
X308440Y329493D01*
X309315Y329855D01*
X310068Y330433D01*
X310645Y331185D01*
X311007Y332060D01*
X311131Y333000D01*
X311007Y333940D01*
X310645Y334816D01*
X310068Y335567D01*
X309315Y336145D01*
X308440Y336507D01*
X307500Y336631D01*
D02*
G37*
G36*
X231469Y332500D02*
X228000D01*
Y329031D01*
X228544Y329103D01*
X229517Y329506D01*
X230353Y330147D01*
X230994Y330983D01*
X231397Y331956D01*
X231469Y332500D01*
D02*
G37*
G36*
X237500Y336631D02*
X236560Y336507D01*
X235684Y336145D01*
X234932Y335567D01*
X234355Y334816D01*
X233993Y333940D01*
X233869Y333000D01*
X233993Y332060D01*
X234355Y331185D01*
X234932Y330433D01*
X235684Y329855D01*
X236560Y329493D01*
X237500Y329369D01*
X238440Y329493D01*
X239316Y329855D01*
X240068Y330433D01*
X240645Y331185D01*
X241007Y332060D01*
X241131Y333000D01*
X241007Y333940D01*
X240645Y334816D01*
X240068Y335567D01*
X239316Y336145D01*
X238440Y336507D01*
X237500Y336631D01*
D02*
G37*
G36*
X227000Y332500D02*
X223531D01*
X223603Y331956D01*
X224006Y330983D01*
X224647Y330147D01*
X225483Y329506D01*
X226456Y329103D01*
X227000Y329031D01*
Y332500D01*
D02*
G37*
G36*
Y327000D02*
X223500D01*
Y323500D01*
X227000D01*
Y327000D01*
D02*
G37*
G36*
X231500D02*
X228000D01*
Y323500D01*
X231500D01*
Y327000D01*
D02*
G37*
G36*
X247500Y336631D02*
X246560Y336507D01*
X245685Y336145D01*
X244933Y335567D01*
X244355Y334816D01*
X243993Y333940D01*
X243869Y333000D01*
X243993Y332060D01*
X244355Y331185D01*
X244933Y330433D01*
X245685Y329855D01*
X246560Y329493D01*
X247500Y329369D01*
X248440Y329493D01*
X249316Y329855D01*
X250067Y330433D01*
X250645Y331185D01*
X251007Y332060D01*
X251131Y333000D01*
X251007Y333940D01*
X250645Y334816D01*
X250067Y335567D01*
X249316Y336145D01*
X248440Y336507D01*
X247500Y336631D01*
D02*
G37*
G36*
X287500D02*
X286560Y336507D01*
X285684Y336145D01*
X284932Y335567D01*
X284355Y334816D01*
X283993Y333940D01*
X283869Y333000D01*
X283993Y332060D01*
X284355Y331185D01*
X284932Y330433D01*
X285684Y329855D01*
X286560Y329493D01*
X287500Y329369D01*
X288440Y329493D01*
X289316Y329855D01*
X290068Y330433D01*
X290645Y331185D01*
X291007Y332060D01*
X291131Y333000D01*
X291007Y333940D01*
X290645Y334816D01*
X290068Y335567D01*
X289316Y336145D01*
X288440Y336507D01*
X287500Y336631D01*
D02*
G37*
G36*
X297500D02*
X296560Y336507D01*
X295685Y336145D01*
X294933Y335567D01*
X294355Y334816D01*
X293993Y333940D01*
X293869Y333000D01*
X293993Y332060D01*
X294355Y331185D01*
X294933Y330433D01*
X295685Y329855D01*
X296560Y329493D01*
X297500Y329369D01*
X298440Y329493D01*
X299316Y329855D01*
X300067Y330433D01*
X300645Y331185D01*
X301007Y332060D01*
X301131Y333000D01*
X301007Y333940D01*
X300645Y334816D01*
X300067Y335567D01*
X299316Y336145D01*
X298440Y336507D01*
X297500Y336631D01*
D02*
G37*
G36*
X277500D02*
X276560Y336507D01*
X275684Y336145D01*
X274933Y335567D01*
X274355Y334816D01*
X273993Y333940D01*
X273869Y333000D01*
X273993Y332060D01*
X274355Y331185D01*
X274933Y330433D01*
X275684Y329855D01*
X276560Y329493D01*
X277500Y329369D01*
X278440Y329493D01*
X279315Y329855D01*
X280067Y330433D01*
X280645Y331185D01*
X281007Y332060D01*
X281131Y333000D01*
X281007Y333940D01*
X280645Y334816D01*
X280067Y335567D01*
X279315Y336145D01*
X278440Y336507D01*
X277500Y336631D01*
D02*
G37*
G36*
X257500D02*
X256560Y336507D01*
X255684Y336145D01*
X254932Y335567D01*
X254355Y334816D01*
X253993Y333940D01*
X253869Y333000D01*
X253993Y332060D01*
X254355Y331185D01*
X254932Y330433D01*
X255684Y329855D01*
X256560Y329493D01*
X257500Y329369D01*
X258440Y329493D01*
X259315Y329855D01*
X260068Y330433D01*
X260645Y331185D01*
X261007Y332060D01*
X261131Y333000D01*
X261007Y333940D01*
X260645Y334816D01*
X260068Y335567D01*
X259315Y336145D01*
X258440Y336507D01*
X257500Y336631D01*
D02*
G37*
G36*
X267500D02*
X266560Y336507D01*
X265685Y336145D01*
X264932Y335567D01*
X264355Y334816D01*
X263993Y333940D01*
X263869Y333000D01*
X263993Y332060D01*
X264355Y331185D01*
X264932Y330433D01*
X265685Y329855D01*
X266560Y329493D01*
X267500Y329369D01*
X268440Y329493D01*
X269316Y329855D01*
X270068Y330433D01*
X270645Y331185D01*
X271007Y332060D01*
X271131Y333000D01*
X271007Y333940D01*
X270645Y334816D01*
X270068Y335567D01*
X269316Y336145D01*
X268440Y336507D01*
X267500Y336631D01*
D02*
G37*
G36*
X377500Y516631D02*
X376560Y516507D01*
X375684Y516145D01*
X374933Y515568D01*
X374355Y514816D01*
X373993Y513940D01*
X373869Y513000D01*
X373993Y512060D01*
X374355Y511185D01*
X374933Y510432D01*
X375684Y509855D01*
X376560Y509493D01*
X377500Y509369D01*
X378440Y509493D01*
X379315Y509855D01*
X380067Y510432D01*
X380645Y511185D01*
X381007Y512060D01*
X381131Y513000D01*
X381007Y513940D01*
X380645Y514816D01*
X380067Y515568D01*
X379315Y516145D01*
X378440Y516507D01*
X377500Y516631D01*
D02*
G37*
G36*
X387500D02*
X386560Y516507D01*
X385684Y516145D01*
X384932Y515568D01*
X384355Y514816D01*
X383993Y513940D01*
X383869Y513000D01*
X383993Y512060D01*
X384355Y511185D01*
X384932Y510432D01*
X385684Y509855D01*
X386560Y509493D01*
X387500Y509369D01*
X388440Y509493D01*
X389316Y509855D01*
X390068Y510432D01*
X390645Y511185D01*
X391007Y512060D01*
X391131Y513000D01*
X391007Y513940D01*
X390645Y514816D01*
X390068Y515568D01*
X389316Y516145D01*
X388440Y516507D01*
X387500Y516631D01*
D02*
G37*
G36*
X367500D02*
X366560Y516507D01*
X365685Y516145D01*
X364932Y515568D01*
X364355Y514816D01*
X363993Y513940D01*
X363869Y513000D01*
X363993Y512060D01*
X364355Y511185D01*
X364932Y510432D01*
X365685Y509855D01*
X366560Y509493D01*
X367500Y509369D01*
X368440Y509493D01*
X369316Y509855D01*
X370068Y510432D01*
X370645Y511185D01*
X371007Y512060D01*
X371131Y513000D01*
X371007Y513940D01*
X370645Y514816D01*
X370068Y515568D01*
X369316Y516145D01*
X368440Y516507D01*
X367500Y516631D01*
D02*
G37*
G36*
X347500D02*
X346560Y516507D01*
X345685Y516145D01*
X344933Y515568D01*
X344355Y514816D01*
X343993Y513940D01*
X343869Y513000D01*
X343993Y512060D01*
X344355Y511185D01*
X344933Y510432D01*
X345685Y509855D01*
X346560Y509493D01*
X347500Y509369D01*
X348440Y509493D01*
X349316Y509855D01*
X350067Y510432D01*
X350645Y511185D01*
X351007Y512060D01*
X351131Y513000D01*
X351007Y513940D01*
X350645Y514816D01*
X350067Y515568D01*
X349316Y516145D01*
X348440Y516507D01*
X347500Y516631D01*
D02*
G37*
G36*
X357500D02*
X356560Y516507D01*
X355684Y516145D01*
X354932Y515568D01*
X354355Y514816D01*
X353993Y513940D01*
X353869Y513000D01*
X353993Y512060D01*
X354355Y511185D01*
X354932Y510432D01*
X355684Y509855D01*
X356560Y509493D01*
X357500Y509369D01*
X358440Y509493D01*
X359315Y509855D01*
X360068Y510432D01*
X360645Y511185D01*
X361007Y512060D01*
X361131Y513000D01*
X361007Y513940D01*
X360645Y514816D01*
X360068Y515568D01*
X359315Y516145D01*
X358440Y516507D01*
X357500Y516631D01*
D02*
G37*
G36*
X397500D02*
X396560Y516507D01*
X395685Y516145D01*
X394933Y515568D01*
X394355Y514816D01*
X393993Y513940D01*
X393869Y513000D01*
X393993Y512060D01*
X394355Y511185D01*
X394933Y510432D01*
X395685Y509855D01*
X396560Y509493D01*
X397500Y509369D01*
X398440Y509493D01*
X399316Y509855D01*
X400068Y510432D01*
X400645Y511185D01*
X401007Y512060D01*
X401131Y513000D01*
X401007Y513940D01*
X400645Y514816D01*
X400068Y515568D01*
X399316Y516145D01*
X398440Y516507D01*
X397500Y516631D01*
D02*
G37*
G36*
X437500D02*
X436560Y516507D01*
X435684Y516145D01*
X434932Y515568D01*
X434355Y514816D01*
X433993Y513940D01*
X433869Y513000D01*
X433993Y512060D01*
X434355Y511185D01*
X434932Y510432D01*
X435684Y509855D01*
X436560Y509493D01*
X437500Y509369D01*
X438440Y509493D01*
X439316Y509855D01*
X440068Y510432D01*
X440645Y511185D01*
X441007Y512060D01*
X441131Y513000D01*
X441007Y513940D01*
X440645Y514816D01*
X440068Y515568D01*
X439316Y516145D01*
X438440Y516507D01*
X437500Y516631D01*
D02*
G37*
G36*
X447500D02*
X446560Y516507D01*
X445684Y516145D01*
X444932Y515568D01*
X444355Y514816D01*
X443993Y513940D01*
X443869Y513000D01*
X443993Y512060D01*
X444355Y511185D01*
X444932Y510432D01*
X445684Y509855D01*
X446560Y509493D01*
X447500Y509369D01*
X448440Y509493D01*
X449316Y509855D01*
X450068Y510432D01*
X450645Y511185D01*
X451007Y512060D01*
X451131Y513000D01*
X451007Y513940D01*
X450645Y514816D01*
X450068Y515568D01*
X449316Y516145D01*
X448440Y516507D01*
X447500Y516631D01*
D02*
G37*
G36*
X427500D02*
X426560Y516507D01*
X425684Y516145D01*
X424932Y515568D01*
X424355Y514816D01*
X423993Y513940D01*
X423869Y513000D01*
X423993Y512060D01*
X424355Y511185D01*
X424932Y510432D01*
X425684Y509855D01*
X426560Y509493D01*
X427500Y509369D01*
X428440Y509493D01*
X429316Y509855D01*
X430068Y510432D01*
X430645Y511185D01*
X431007Y512060D01*
X431131Y513000D01*
X431007Y513940D01*
X430645Y514816D01*
X430068Y515568D01*
X429316Y516145D01*
X428440Y516507D01*
X427500Y516631D01*
D02*
G37*
G36*
X407500D02*
X406560Y516507D01*
X405685Y516145D01*
X404932Y515568D01*
X404355Y514816D01*
X403993Y513940D01*
X403869Y513000D01*
X403993Y512060D01*
X404355Y511185D01*
X404932Y510432D01*
X405685Y509855D01*
X406560Y509493D01*
X407500Y509369D01*
X408440Y509493D01*
X409315Y509855D01*
X410068Y510432D01*
X410645Y511185D01*
X411007Y512060D01*
X411131Y513000D01*
X411007Y513940D01*
X410645Y514816D01*
X410068Y515568D01*
X409315Y516145D01*
X408440Y516507D01*
X407500Y516631D01*
D02*
G37*
G36*
X417500D02*
X416560Y516507D01*
X415685Y516145D01*
X414932Y515568D01*
X414355Y514816D01*
X413993Y513940D01*
X413869Y513000D01*
X413993Y512060D01*
X414355Y511185D01*
X414932Y510432D01*
X415685Y509855D01*
X416560Y509493D01*
X417500Y509369D01*
X418440Y509493D01*
X419315Y509855D01*
X420068Y510432D01*
X420645Y511185D01*
X421007Y512060D01*
X421131Y513000D01*
X421007Y513940D01*
X420645Y514816D01*
X420068Y515568D01*
X419315Y516145D01*
X418440Y516507D01*
X417500Y516631D01*
D02*
G37*
G36*
X337500D02*
X336560Y516507D01*
X335684Y516145D01*
X334932Y515568D01*
X334355Y514816D01*
X333993Y513940D01*
X333869Y513000D01*
X333993Y512060D01*
X334355Y511185D01*
X334932Y510432D01*
X335684Y509855D01*
X336560Y509493D01*
X337500Y509369D01*
X338440Y509493D01*
X339316Y509855D01*
X340068Y510432D01*
X340645Y511185D01*
X341007Y512060D01*
X341131Y513000D01*
X341007Y513940D01*
X340645Y514816D01*
X340068Y515568D01*
X339316Y516145D01*
X338440Y516507D01*
X337500Y516631D01*
D02*
G37*
G36*
X257500D02*
X256560Y516507D01*
X255684Y516145D01*
X254932Y515568D01*
X254355Y514816D01*
X253993Y513940D01*
X253869Y513000D01*
X253993Y512060D01*
X254355Y511185D01*
X254932Y510432D01*
X255684Y509855D01*
X256560Y509493D01*
X257500Y509369D01*
X258440Y509493D01*
X259315Y509855D01*
X260068Y510432D01*
X260645Y511185D01*
X261007Y512060D01*
X261131Y513000D01*
X261007Y513940D01*
X260645Y514816D01*
X260068Y515568D01*
X259315Y516145D01*
X258440Y516507D01*
X257500Y516631D01*
D02*
G37*
G36*
X267500D02*
X266560Y516507D01*
X265685Y516145D01*
X264932Y515568D01*
X264355Y514816D01*
X263993Y513940D01*
X263869Y513000D01*
X263993Y512060D01*
X264355Y511185D01*
X264932Y510432D01*
X265685Y509855D01*
X266560Y509493D01*
X267500Y509369D01*
X268440Y509493D01*
X269316Y509855D01*
X270068Y510432D01*
X270645Y511185D01*
X271007Y512060D01*
X271131Y513000D01*
X271007Y513940D01*
X270645Y514816D01*
X270068Y515568D01*
X269316Y516145D01*
X268440Y516507D01*
X267500Y516631D01*
D02*
G37*
G36*
X247500D02*
X246560Y516507D01*
X245685Y516145D01*
X244933Y515568D01*
X244355Y514816D01*
X243993Y513940D01*
X243869Y513000D01*
X243993Y512060D01*
X244355Y511185D01*
X244933Y510432D01*
X245685Y509855D01*
X246560Y509493D01*
X247500Y509369D01*
X248440Y509493D01*
X249316Y509855D01*
X250067Y510432D01*
X250645Y511185D01*
X251007Y512060D01*
X251131Y513000D01*
X251007Y513940D01*
X250645Y514816D01*
X250067Y515568D01*
X249316Y516145D01*
X248440Y516507D01*
X247500Y516631D01*
D02*
G37*
G36*
X473500Y473983D02*
Y472543D01*
X474940D01*
X474884Y472824D01*
X474442Y473485D01*
X473780Y473927D01*
X473500Y473983D01*
D02*
G37*
G36*
X237500Y516631D02*
X236560Y516507D01*
X235684Y516145D01*
X234932Y515568D01*
X234355Y514816D01*
X233993Y513940D01*
X233869Y513000D01*
X233993Y512060D01*
X234355Y511185D01*
X234932Y510432D01*
X235684Y509855D01*
X236560Y509493D01*
X237500Y509369D01*
X238440Y509493D01*
X239316Y509855D01*
X240068Y510432D01*
X240645Y511185D01*
X241007Y512060D01*
X241131Y513000D01*
X241007Y513940D01*
X240645Y514816D01*
X240068Y515568D01*
X239316Y516145D01*
X238440Y516507D01*
X237500Y516631D01*
D02*
G37*
G36*
X277500D02*
X276560Y516507D01*
X275684Y516145D01*
X274933Y515568D01*
X274355Y514816D01*
X273993Y513940D01*
X273869Y513000D01*
X273993Y512060D01*
X274355Y511185D01*
X274933Y510432D01*
X275684Y509855D01*
X276560Y509493D01*
X277500Y509369D01*
X278440Y509493D01*
X279315Y509855D01*
X280067Y510432D01*
X280645Y511185D01*
X281007Y512060D01*
X281131Y513000D01*
X281007Y513940D01*
X280645Y514816D01*
X280067Y515568D01*
X279315Y516145D01*
X278440Y516507D01*
X277500Y516631D01*
D02*
G37*
G36*
X317500D02*
X316560Y516507D01*
X315685Y516145D01*
X314932Y515568D01*
X314355Y514816D01*
X313993Y513940D01*
X313869Y513000D01*
X313993Y512060D01*
X314355Y511185D01*
X314932Y510432D01*
X315685Y509855D01*
X316560Y509493D01*
X317500Y509369D01*
X318440Y509493D01*
X319316Y509855D01*
X320068Y510432D01*
X320645Y511185D01*
X321007Y512060D01*
X321131Y513000D01*
X321007Y513940D01*
X320645Y514816D01*
X320068Y515568D01*
X319316Y516145D01*
X318440Y516507D01*
X317500Y516631D01*
D02*
G37*
G36*
X327500D02*
X326560Y516507D01*
X325684Y516145D01*
X324933Y515568D01*
X324355Y514816D01*
X323993Y513940D01*
X323869Y513000D01*
X323993Y512060D01*
X324355Y511185D01*
X324933Y510432D01*
X325684Y509855D01*
X326560Y509493D01*
X327500Y509369D01*
X328440Y509493D01*
X329315Y509855D01*
X330067Y510432D01*
X330645Y511185D01*
X331007Y512060D01*
X331131Y513000D01*
X331007Y513940D01*
X330645Y514816D01*
X330067Y515568D01*
X329315Y516145D01*
X328440Y516507D01*
X327500Y516631D01*
D02*
G37*
G36*
X307500D02*
X306560Y516507D01*
X305684Y516145D01*
X304932Y515568D01*
X304355Y514816D01*
X303993Y513940D01*
X303869Y513000D01*
X303993Y512060D01*
X304355Y511185D01*
X304932Y510432D01*
X305684Y509855D01*
X306560Y509493D01*
X307500Y509369D01*
X308440Y509493D01*
X309315Y509855D01*
X310068Y510432D01*
X310645Y511185D01*
X311007Y512060D01*
X311131Y513000D01*
X311007Y513940D01*
X310645Y514816D01*
X310068Y515568D01*
X309315Y516145D01*
X308440Y516507D01*
X307500Y516631D01*
D02*
G37*
G36*
X287500D02*
X286560Y516507D01*
X285684Y516145D01*
X284932Y515568D01*
X284355Y514816D01*
X283993Y513940D01*
X283869Y513000D01*
X283993Y512060D01*
X284355Y511185D01*
X284932Y510432D01*
X285684Y509855D01*
X286560Y509493D01*
X287500Y509369D01*
X288440Y509493D01*
X289316Y509855D01*
X290068Y510432D01*
X290645Y511185D01*
X291007Y512060D01*
X291131Y513000D01*
X291007Y513940D01*
X290645Y514816D01*
X290068Y515568D01*
X289316Y516145D01*
X288440Y516507D01*
X287500Y516631D01*
D02*
G37*
G36*
X297500D02*
X296560Y516507D01*
X295685Y516145D01*
X294933Y515568D01*
X294355Y514816D01*
X293993Y513940D01*
X293869Y513000D01*
X293993Y512060D01*
X294355Y511185D01*
X294933Y510432D01*
X295685Y509855D01*
X296560Y509493D01*
X297500Y509369D01*
X298440Y509493D01*
X299316Y509855D01*
X300067Y510432D01*
X300645Y511185D01*
X301007Y512060D01*
X301131Y513000D01*
X301007Y513940D01*
X300645Y514816D01*
X300067Y515568D01*
X299316Y516145D01*
X298440Y516507D01*
X297500Y516631D01*
D02*
G37*
G36*
X231100Y516600D02*
X223900D01*
Y509400D01*
X231100D01*
Y516600D01*
D02*
G37*
G36*
X377500Y526631D02*
X376560Y526507D01*
X375684Y526145D01*
X374933Y525568D01*
X374355Y524816D01*
X373993Y523940D01*
X373869Y523000D01*
X373993Y522060D01*
X374355Y521184D01*
X374933Y520432D01*
X375684Y519855D01*
X376560Y519493D01*
X377500Y519369D01*
X378440Y519493D01*
X379315Y519855D01*
X380067Y520432D01*
X380645Y521184D01*
X381007Y522060D01*
X381131Y523000D01*
X381007Y523940D01*
X380645Y524816D01*
X380067Y525568D01*
X379315Y526145D01*
X378440Y526507D01*
X377500Y526631D01*
D02*
G37*
G36*
X387500D02*
X386560Y526507D01*
X385684Y526145D01*
X384932Y525568D01*
X384355Y524816D01*
X383993Y523940D01*
X383869Y523000D01*
X383993Y522060D01*
X384355Y521184D01*
X384932Y520432D01*
X385684Y519855D01*
X386560Y519493D01*
X387500Y519369D01*
X388440Y519493D01*
X389316Y519855D01*
X390068Y520432D01*
X390645Y521184D01*
X391007Y522060D01*
X391131Y523000D01*
X391007Y523940D01*
X390645Y524816D01*
X390068Y525568D01*
X389316Y526145D01*
X388440Y526507D01*
X387500Y526631D01*
D02*
G37*
G36*
X367500D02*
X366560Y526507D01*
X365685Y526145D01*
X364932Y525568D01*
X364355Y524816D01*
X363993Y523940D01*
X363869Y523000D01*
X363993Y522060D01*
X364355Y521184D01*
X364932Y520432D01*
X365685Y519855D01*
X366560Y519493D01*
X367500Y519369D01*
X368440Y519493D01*
X369316Y519855D01*
X370068Y520432D01*
X370645Y521184D01*
X371007Y522060D01*
X371131Y523000D01*
X371007Y523940D01*
X370645Y524816D01*
X370068Y525568D01*
X369316Y526145D01*
X368440Y526507D01*
X367500Y526631D01*
D02*
G37*
G36*
X347500D02*
X346560Y526507D01*
X345685Y526145D01*
X344933Y525568D01*
X344355Y524816D01*
X343993Y523940D01*
X343869Y523000D01*
X343993Y522060D01*
X344355Y521184D01*
X344933Y520432D01*
X345685Y519855D01*
X346560Y519493D01*
X347500Y519369D01*
X348440Y519493D01*
X349316Y519855D01*
X350067Y520432D01*
X350645Y521184D01*
X351007Y522060D01*
X351131Y523000D01*
X351007Y523940D01*
X350645Y524816D01*
X350067Y525568D01*
X349316Y526145D01*
X348440Y526507D01*
X347500Y526631D01*
D02*
G37*
G36*
X357500D02*
X356560Y526507D01*
X355684Y526145D01*
X354932Y525568D01*
X354355Y524816D01*
X353993Y523940D01*
X353869Y523000D01*
X353993Y522060D01*
X354355Y521184D01*
X354932Y520432D01*
X355684Y519855D01*
X356560Y519493D01*
X357500Y519369D01*
X358440Y519493D01*
X359315Y519855D01*
X360068Y520432D01*
X360645Y521184D01*
X361007Y522060D01*
X361131Y523000D01*
X361007Y523940D01*
X360645Y524816D01*
X360068Y525568D01*
X359315Y526145D01*
X358440Y526507D01*
X357500Y526631D01*
D02*
G37*
G36*
X397500D02*
X396560Y526507D01*
X395685Y526145D01*
X394933Y525568D01*
X394355Y524816D01*
X393993Y523940D01*
X393869Y523000D01*
X393993Y522060D01*
X394355Y521184D01*
X394933Y520432D01*
X395685Y519855D01*
X396560Y519493D01*
X397500Y519369D01*
X398440Y519493D01*
X399316Y519855D01*
X400068Y520432D01*
X400645Y521184D01*
X401007Y522060D01*
X401131Y523000D01*
X401007Y523940D01*
X400645Y524816D01*
X400068Y525568D01*
X399316Y526145D01*
X398440Y526507D01*
X397500Y526631D01*
D02*
G37*
G36*
X437500D02*
X436560Y526507D01*
X435684Y526145D01*
X434932Y525568D01*
X434355Y524816D01*
X433993Y523940D01*
X433869Y523000D01*
X433993Y522060D01*
X434355Y521184D01*
X434932Y520432D01*
X435684Y519855D01*
X436560Y519493D01*
X437500Y519369D01*
X438440Y519493D01*
X439316Y519855D01*
X440068Y520432D01*
X440645Y521184D01*
X441007Y522060D01*
X441131Y523000D01*
X441007Y523940D01*
X440645Y524816D01*
X440068Y525568D01*
X439316Y526145D01*
X438440Y526507D01*
X437500Y526631D01*
D02*
G37*
G36*
X447500D02*
X446560Y526507D01*
X445684Y526145D01*
X444932Y525568D01*
X444355Y524816D01*
X443993Y523940D01*
X443869Y523000D01*
X443993Y522060D01*
X444355Y521184D01*
X444932Y520432D01*
X445684Y519855D01*
X446560Y519493D01*
X447500Y519369D01*
X448440Y519493D01*
X449316Y519855D01*
X450068Y520432D01*
X450645Y521184D01*
X451007Y522060D01*
X451131Y523000D01*
X451007Y523940D01*
X450645Y524816D01*
X450068Y525568D01*
X449316Y526145D01*
X448440Y526507D01*
X447500Y526631D01*
D02*
G37*
G36*
X427500D02*
X426560Y526507D01*
X425684Y526145D01*
X424932Y525568D01*
X424355Y524816D01*
X423993Y523940D01*
X423869Y523000D01*
X423993Y522060D01*
X424355Y521184D01*
X424932Y520432D01*
X425684Y519855D01*
X426560Y519493D01*
X427500Y519369D01*
X428440Y519493D01*
X429316Y519855D01*
X430068Y520432D01*
X430645Y521184D01*
X431007Y522060D01*
X431131Y523000D01*
X431007Y523940D01*
X430645Y524816D01*
X430068Y525568D01*
X429316Y526145D01*
X428440Y526507D01*
X427500Y526631D01*
D02*
G37*
G36*
X407500D02*
X406560Y526507D01*
X405685Y526145D01*
X404932Y525568D01*
X404355Y524816D01*
X403993Y523940D01*
X403869Y523000D01*
X403993Y522060D01*
X404355Y521184D01*
X404932Y520432D01*
X405685Y519855D01*
X406560Y519493D01*
X407500Y519369D01*
X408440Y519493D01*
X409315Y519855D01*
X410068Y520432D01*
X410645Y521184D01*
X411007Y522060D01*
X411131Y523000D01*
X411007Y523940D01*
X410645Y524816D01*
X410068Y525568D01*
X409315Y526145D01*
X408440Y526507D01*
X407500Y526631D01*
D02*
G37*
G36*
X417500D02*
X416560Y526507D01*
X415685Y526145D01*
X414932Y525568D01*
X414355Y524816D01*
X413993Y523940D01*
X413869Y523000D01*
X413993Y522060D01*
X414355Y521184D01*
X414932Y520432D01*
X415685Y519855D01*
X416560Y519493D01*
X417500Y519369D01*
X418440Y519493D01*
X419315Y519855D01*
X420068Y520432D01*
X420645Y521184D01*
X421007Y522060D01*
X421131Y523000D01*
X421007Y523940D01*
X420645Y524816D01*
X420068Y525568D01*
X419315Y526145D01*
X418440Y526507D01*
X417500Y526631D01*
D02*
G37*
G36*
X337500D02*
X336560Y526507D01*
X335684Y526145D01*
X334932Y525568D01*
X334355Y524816D01*
X333993Y523940D01*
X333869Y523000D01*
X333993Y522060D01*
X334355Y521184D01*
X334932Y520432D01*
X335684Y519855D01*
X336560Y519493D01*
X337500Y519369D01*
X338440Y519493D01*
X339316Y519855D01*
X340068Y520432D01*
X340645Y521184D01*
X341007Y522060D01*
X341131Y523000D01*
X341007Y523940D01*
X340645Y524816D01*
X340068Y525568D01*
X339316Y526145D01*
X338440Y526507D01*
X337500Y526631D01*
D02*
G37*
G36*
X257500D02*
X256560Y526507D01*
X255684Y526145D01*
X254932Y525568D01*
X254355Y524816D01*
X253993Y523940D01*
X253869Y523000D01*
X253993Y522060D01*
X254355Y521184D01*
X254932Y520432D01*
X255684Y519855D01*
X256560Y519493D01*
X257500Y519369D01*
X258440Y519493D01*
X259315Y519855D01*
X260068Y520432D01*
X260645Y521184D01*
X261007Y522060D01*
X261131Y523000D01*
X261007Y523940D01*
X260645Y524816D01*
X260068Y525568D01*
X259315Y526145D01*
X258440Y526507D01*
X257500Y526631D01*
D02*
G37*
G36*
X267500D02*
X266560Y526507D01*
X265685Y526145D01*
X264932Y525568D01*
X264355Y524816D01*
X263993Y523940D01*
X263869Y523000D01*
X263993Y522060D01*
X264355Y521184D01*
X264932Y520432D01*
X265685Y519855D01*
X266560Y519493D01*
X267500Y519369D01*
X268440Y519493D01*
X269316Y519855D01*
X270068Y520432D01*
X270645Y521184D01*
X271007Y522060D01*
X271131Y523000D01*
X271007Y523940D01*
X270645Y524816D01*
X270068Y525568D01*
X269316Y526145D01*
X268440Y526507D01*
X267500Y526631D01*
D02*
G37*
G36*
X247500D02*
X246560Y526507D01*
X245685Y526145D01*
X244933Y525568D01*
X244355Y524816D01*
X243993Y523940D01*
X243869Y523000D01*
X243993Y522060D01*
X244355Y521184D01*
X244933Y520432D01*
X245685Y519855D01*
X246560Y519493D01*
X247500Y519369D01*
X248440Y519493D01*
X249316Y519855D01*
X250067Y520432D01*
X250645Y521184D01*
X251007Y522060D01*
X251131Y523000D01*
X251007Y523940D01*
X250645Y524816D01*
X250067Y525568D01*
X249316Y526145D01*
X248440Y526507D01*
X247500Y526631D01*
D02*
G37*
G36*
X227500D02*
X226560Y526507D01*
X225684Y526145D01*
X224933Y525568D01*
X224355Y524816D01*
X223993Y523940D01*
X223869Y523000D01*
X223993Y522060D01*
X224355Y521184D01*
X224933Y520432D01*
X225684Y519855D01*
X226560Y519493D01*
X227500Y519369D01*
X228440Y519493D01*
X229315Y519855D01*
X230067Y520432D01*
X230645Y521184D01*
X231007Y522060D01*
X231131Y523000D01*
X231007Y523940D01*
X230645Y524816D01*
X230067Y525568D01*
X229315Y526145D01*
X228440Y526507D01*
X227500Y526631D01*
D02*
G37*
G36*
X237500D02*
X236560Y526507D01*
X235684Y526145D01*
X234932Y525568D01*
X234355Y524816D01*
X233993Y523940D01*
X233869Y523000D01*
X233993Y522060D01*
X234355Y521184D01*
X234932Y520432D01*
X235684Y519855D01*
X236560Y519493D01*
X237500Y519369D01*
X238440Y519493D01*
X239316Y519855D01*
X240068Y520432D01*
X240645Y521184D01*
X241007Y522060D01*
X241131Y523000D01*
X241007Y523940D01*
X240645Y524816D01*
X240068Y525568D01*
X239316Y526145D01*
X238440Y526507D01*
X237500Y526631D01*
D02*
G37*
G36*
X277500D02*
X276560Y526507D01*
X275684Y526145D01*
X274933Y525568D01*
X274355Y524816D01*
X273993Y523940D01*
X273869Y523000D01*
X273993Y522060D01*
X274355Y521184D01*
X274933Y520432D01*
X275684Y519855D01*
X276560Y519493D01*
X277500Y519369D01*
X278440Y519493D01*
X279315Y519855D01*
X280067Y520432D01*
X280645Y521184D01*
X281007Y522060D01*
X281131Y523000D01*
X281007Y523940D01*
X280645Y524816D01*
X280067Y525568D01*
X279315Y526145D01*
X278440Y526507D01*
X277500Y526631D01*
D02*
G37*
G36*
X317500D02*
X316560Y526507D01*
X315685Y526145D01*
X314932Y525568D01*
X314355Y524816D01*
X313993Y523940D01*
X313869Y523000D01*
X313993Y522060D01*
X314355Y521184D01*
X314932Y520432D01*
X315685Y519855D01*
X316560Y519493D01*
X317500Y519369D01*
X318440Y519493D01*
X319316Y519855D01*
X320068Y520432D01*
X320645Y521184D01*
X321007Y522060D01*
X321131Y523000D01*
X321007Y523940D01*
X320645Y524816D01*
X320068Y525568D01*
X319316Y526145D01*
X318440Y526507D01*
X317500Y526631D01*
D02*
G37*
G36*
X327500D02*
X326560Y526507D01*
X325684Y526145D01*
X324933Y525568D01*
X324355Y524816D01*
X323993Y523940D01*
X323869Y523000D01*
X323993Y522060D01*
X324355Y521184D01*
X324933Y520432D01*
X325684Y519855D01*
X326560Y519493D01*
X327500Y519369D01*
X328440Y519493D01*
X329315Y519855D01*
X330067Y520432D01*
X330645Y521184D01*
X331007Y522060D01*
X331131Y523000D01*
X331007Y523940D01*
X330645Y524816D01*
X330067Y525568D01*
X329315Y526145D01*
X328440Y526507D01*
X327500Y526631D01*
D02*
G37*
G36*
X307500D02*
X306560Y526507D01*
X305684Y526145D01*
X304932Y525568D01*
X304355Y524816D01*
X303993Y523940D01*
X303869Y523000D01*
X303993Y522060D01*
X304355Y521184D01*
X304932Y520432D01*
X305684Y519855D01*
X306560Y519493D01*
X307500Y519369D01*
X308440Y519493D01*
X309315Y519855D01*
X310068Y520432D01*
X310645Y521184D01*
X311007Y522060D01*
X311131Y523000D01*
X311007Y523940D01*
X310645Y524816D01*
X310068Y525568D01*
X309315Y526145D01*
X308440Y526507D01*
X307500Y526631D01*
D02*
G37*
G36*
X287500D02*
X286560Y526507D01*
X285684Y526145D01*
X284932Y525568D01*
X284355Y524816D01*
X283993Y523940D01*
X283869Y523000D01*
X283993Y522060D01*
X284355Y521184D01*
X284932Y520432D01*
X285684Y519855D01*
X286560Y519493D01*
X287500Y519369D01*
X288440Y519493D01*
X289316Y519855D01*
X290068Y520432D01*
X290645Y521184D01*
X291007Y522060D01*
X291131Y523000D01*
X291007Y523940D01*
X290645Y524816D01*
X290068Y525568D01*
X289316Y526145D01*
X288440Y526507D01*
X287500Y526631D01*
D02*
G37*
G36*
X297500D02*
X296560Y526507D01*
X295685Y526145D01*
X294933Y525568D01*
X294355Y524816D01*
X293993Y523940D01*
X293869Y523000D01*
X293993Y522060D01*
X294355Y521184D01*
X294933Y520432D01*
X295685Y519855D01*
X296560Y519493D01*
X297500Y519369D01*
X298440Y519493D01*
X299316Y519855D01*
X300067Y520432D01*
X300645Y521184D01*
X301007Y522060D01*
X301131Y523000D01*
X301007Y523940D01*
X300645Y524816D01*
X300067Y525568D01*
X299316Y526145D01*
X298440Y526507D01*
X297500Y526631D01*
D02*
G37*
G36*
X469726Y437145D02*
Y435705D01*
X471166D01*
X471110Y435985D01*
X470668Y436647D01*
X470007Y437089D01*
X469726Y437145D01*
D02*
G37*
G36*
X451000Y440543D02*
X449560D01*
X449616Y440263D01*
X450058Y439601D01*
X450720Y439159D01*
X451000Y439104D01*
Y440543D01*
D02*
G37*
G36*
X468726Y437145D02*
X468446Y437089D01*
X467785Y436647D01*
X467342Y435985D01*
X467287Y435705D01*
X468726D01*
Y437145D01*
D02*
G37*
G36*
X433575Y435081D02*
X433294Y435026D01*
X432633Y434584D01*
X432191Y433922D01*
X432135Y433642D01*
X433575D01*
Y435081D01*
D02*
G37*
G36*
X434575D02*
Y433642D01*
X436015D01*
X435959Y433922D01*
X435517Y434584D01*
X434855Y435026D01*
X434575Y435081D01*
D02*
G37*
G36*
X453440Y440543D02*
X452000D01*
Y439104D01*
X452280Y439159D01*
X452942Y439601D01*
X453384Y440263D01*
X453440Y440543D01*
D02*
G37*
G36*
X476166Y440774D02*
X474726D01*
Y439334D01*
X475007Y439390D01*
X475668Y439832D01*
X476110Y440493D01*
X476166Y440774D01*
D02*
G37*
G36*
X483766Y442461D02*
X482326D01*
X482382Y442180D01*
X482824Y441519D01*
X483485Y441077D01*
X483766Y441021D01*
Y442461D01*
D02*
G37*
G36*
X473726Y440774D02*
X472287D01*
X472342Y440493D01*
X472785Y439832D01*
X473446Y439390D01*
X473726Y439334D01*
Y440774D01*
D02*
G37*
G36*
X469000Y440543D02*
X467560D01*
X467616Y440263D01*
X468058Y439601D01*
X468720Y439159D01*
X469000Y439104D01*
Y440543D01*
D02*
G37*
G36*
X471440D02*
X470000D01*
Y439104D01*
X470280Y439159D01*
X470942Y439601D01*
X471384Y440263D01*
X471440Y440543D01*
D02*
G37*
G36*
X471166Y434705D02*
X469726D01*
Y433265D01*
X470007Y433321D01*
X470668Y433763D01*
X471110Y434424D01*
X471166Y434705D01*
D02*
G37*
G36*
X422358Y422365D02*
Y420925D01*
X423798D01*
X423742Y421206D01*
X423300Y421867D01*
X422639Y422309D01*
X422358Y422365D01*
D02*
G37*
G36*
X468234Y427618D02*
X466794D01*
X466850Y427338D01*
X467292Y426676D01*
X467954Y426234D01*
X468234Y426178D01*
Y427618D01*
D02*
G37*
G36*
X421358Y422365D02*
X421078Y422309D01*
X420416Y421867D01*
X419974Y421206D01*
X419918Y420925D01*
X421358D01*
Y422365D01*
D02*
G37*
G36*
X453642Y419215D02*
X453361Y419160D01*
X452700Y418717D01*
X452258Y418056D01*
X452202Y417776D01*
X453642D01*
Y419215D01*
D02*
G37*
G36*
X454642D02*
Y417776D01*
X456081D01*
X456026Y418056D01*
X455584Y418717D01*
X454922Y419160D01*
X454642Y419215D01*
D02*
G37*
G36*
X470674Y427618D02*
X469234D01*
Y426178D01*
X469515Y426234D01*
X470176Y426676D01*
X470618Y427338D01*
X470674Y427618D01*
D02*
G37*
G36*
X436015Y432642D02*
X434575D01*
Y431202D01*
X434855Y431258D01*
X435517Y431700D01*
X435959Y432361D01*
X436015Y432642D01*
D02*
G37*
G36*
X468726Y434705D02*
X467287D01*
X467342Y434424D01*
X467785Y433763D01*
X468446Y433321D01*
X468726Y433265D01*
Y434705D01*
D02*
G37*
G36*
X433575Y432642D02*
X432135D01*
X432191Y432361D01*
X432633Y431700D01*
X433294Y431258D01*
X433575Y431202D01*
Y432642D01*
D02*
G37*
G36*
X468234Y430058D02*
X467954Y430002D01*
X467292Y429560D01*
X466850Y428898D01*
X466794Y428618D01*
X468234D01*
Y430058D01*
D02*
G37*
G36*
X469234D02*
Y428618D01*
X470674D01*
X470618Y428898D01*
X470176Y429560D01*
X469515Y430002D01*
X469234Y430058D01*
D02*
G37*
G36*
X486205Y442461D02*
X484766D01*
Y441021D01*
X485046Y441077D01*
X485708Y441519D01*
X486150Y442180D01*
X486205Y442461D01*
D02*
G37*
G36*
X473500Y455940D02*
Y454500D01*
X474940D01*
X474884Y454780D01*
X474442Y455442D01*
X473780Y455884D01*
X473500Y455940D01*
D02*
G37*
G36*
X394500Y471543D02*
X393060D01*
X393116Y471263D01*
X393558Y470601D01*
X394220Y470159D01*
X394500Y470104D01*
Y471543D01*
D02*
G37*
G36*
X472500Y455940D02*
X472220Y455884D01*
X471558Y455442D01*
X471116Y454780D01*
X471060Y454500D01*
X472500D01*
Y455940D01*
D02*
G37*
G36*
Y453500D02*
X471060D01*
X471116Y453220D01*
X471558Y452558D01*
X472220Y452116D01*
X472500Y452060D01*
Y453500D01*
D02*
G37*
G36*
X474940D02*
X473500D01*
Y452060D01*
X473780Y452116D01*
X474442Y452558D01*
X474884Y453220D01*
X474940Y453500D01*
D02*
G37*
G36*
X396940Y471543D02*
X395500D01*
Y470104D01*
X395780Y470159D01*
X396442Y470601D01*
X396884Y471263D01*
X396940Y471543D01*
D02*
G37*
G36*
X395500Y473983D02*
Y472543D01*
X396940D01*
X396884Y472824D01*
X396442Y473485D01*
X395780Y473927D01*
X395500Y473983D01*
D02*
G37*
G36*
X472500Y473983D02*
X472220Y473927D01*
X471558Y473485D01*
X471116Y472824D01*
X471060Y472543D01*
X472500D01*
Y473983D01*
D02*
G37*
G36*
X394500Y473983D02*
X394220Y473927D01*
X393558Y473485D01*
X393116Y472824D01*
X393060Y472543D01*
X394500D01*
Y473983D01*
D02*
G37*
G36*
X472500Y471543D02*
X471060D01*
X471116Y471263D01*
X471558Y470601D01*
X472220Y470159D01*
X472500Y470104D01*
Y471543D01*
D02*
G37*
G36*
X474940D02*
X473500D01*
Y470104D01*
X473780Y470159D01*
X474442Y470601D01*
X474884Y471263D01*
X474940Y471543D01*
D02*
G37*
G36*
X444024Y445082D02*
Y443642D01*
X445463D01*
X445408Y443922D01*
X444966Y444584D01*
X444304Y445026D01*
X444024Y445082D01*
D02*
G37*
G36*
X452000Y442983D02*
Y441543D01*
X453440D01*
X453384Y441824D01*
X452942Y442485D01*
X452280Y442927D01*
X452000Y442983D01*
D02*
G37*
G36*
X469000D02*
X468720Y442927D01*
X468058Y442485D01*
X467616Y441824D01*
X467560Y441543D01*
X469000D01*
Y442983D01*
D02*
G37*
G36*
X451000D02*
X450720Y442927D01*
X450058Y442485D01*
X449616Y441824D01*
X449560Y441543D01*
X451000D01*
Y442983D01*
D02*
G37*
G36*
X443024Y442642D02*
X441584D01*
X441640Y442361D01*
X442082Y441700D01*
X442743Y441258D01*
X443024Y441202D01*
Y442642D01*
D02*
G37*
G36*
X445463D02*
X444024D01*
Y441202D01*
X444304Y441258D01*
X444966Y441700D01*
X445408Y442361D01*
X445463Y442642D01*
D02*
G37*
G36*
X470000Y442983D02*
Y441543D01*
X471440D01*
X471384Y441824D01*
X470942Y442485D01*
X470280Y442927D01*
X470000Y442983D01*
D02*
G37*
G36*
X484766Y444900D02*
Y443461D01*
X486205D01*
X486150Y443741D01*
X485708Y444403D01*
X485046Y444845D01*
X484766Y444900D01*
D02*
G37*
G36*
X443024Y445082D02*
X442743Y445026D01*
X442082Y444584D01*
X441640Y443922D01*
X441584Y443642D01*
X443024D01*
Y445082D01*
D02*
G37*
G36*
X483766Y444900D02*
X483485Y444845D01*
X482824Y444403D01*
X482382Y443741D01*
X482326Y443461D01*
X483766D01*
Y444900D01*
D02*
G37*
G36*
X473726Y443213D02*
X473446Y443158D01*
X472785Y442716D01*
X472342Y442054D01*
X472287Y441774D01*
X473726D01*
Y443213D01*
D02*
G37*
G36*
X474726D02*
Y441774D01*
X476166D01*
X476110Y442054D01*
X475668Y442716D01*
X475007Y443158D01*
X474726Y443213D01*
D02*
G37*
%LPD*%
D25*
X227500Y323000D02*
D03*
Y513000D02*
D03*
D26*
X237500Y323000D02*
D03*
X247500D02*
D03*
X257500D02*
D03*
X267500D02*
D03*
X277500D02*
D03*
X287500D02*
D03*
X297500D02*
D03*
X307500D02*
D03*
X317500D02*
D03*
X327500D02*
D03*
X337500D02*
D03*
X347500D02*
D03*
X357500D02*
D03*
X367500D02*
D03*
X377500D02*
D03*
X387500D02*
D03*
X397500D02*
D03*
X407500D02*
D03*
X417500D02*
D03*
X427500D02*
D03*
X437500D02*
D03*
X447500D02*
D03*
X227500Y333000D02*
D03*
X237500D02*
D03*
X247500D02*
D03*
X257500D02*
D03*
X267500D02*
D03*
X277500D02*
D03*
X287500D02*
D03*
X297500D02*
D03*
X307500D02*
D03*
X317500D02*
D03*
X327500D02*
D03*
X337500D02*
D03*
X347500D02*
D03*
X357500D02*
D03*
X367500D02*
D03*
X377500D02*
D03*
X387500D02*
D03*
X397500D02*
D03*
X407500D02*
D03*
X417500D02*
D03*
X427500D02*
D03*
X437500D02*
D03*
X447500D02*
D03*
X237500Y513000D02*
D03*
X247500D02*
D03*
X257500D02*
D03*
X267500D02*
D03*
X277500D02*
D03*
X287500D02*
D03*
X297500D02*
D03*
X307500D02*
D03*
X317500D02*
D03*
X327500D02*
D03*
X337500D02*
D03*
X347500D02*
D03*
X357500D02*
D03*
X367500D02*
D03*
X377500D02*
D03*
X387500D02*
D03*
X397500D02*
D03*
X407500D02*
D03*
X417500D02*
D03*
X427500D02*
D03*
X437500D02*
D03*
X447500D02*
D03*
X227500Y523000D02*
D03*
X237500D02*
D03*
X247500D02*
D03*
X257500D02*
D03*
X267500D02*
D03*
X277500D02*
D03*
X287500D02*
D03*
X297500D02*
D03*
X307500D02*
D03*
X317500D02*
D03*
X327500D02*
D03*
X337500D02*
D03*
X347500D02*
D03*
X357500D02*
D03*
X367500D02*
D03*
X377500D02*
D03*
X387500D02*
D03*
X397500D02*
D03*
X407500D02*
D03*
X417500D02*
D03*
X427500D02*
D03*
X437500D02*
D03*
X447500D02*
D03*
D27*
X467500Y505500D02*
D03*
Y340500D02*
D03*
X207500Y518000D02*
D03*
Y328000D02*
D03*
D28*
X473000Y454000D02*
D03*
X401000Y413457D02*
D03*
X409000D02*
D03*
X443524Y443142D02*
D03*
X434075Y433142D02*
D03*
X421476Y410858D02*
D03*
X443524Y400858D02*
D03*
X469500Y441043D02*
D03*
X270354Y352000D02*
D03*
X473000Y472043D02*
D03*
X287457Y369500D02*
D03*
X454142Y417276D02*
D03*
Y414126D02*
D03*
X421858Y417276D02*
D03*
Y420425D02*
D03*
X395000Y472043D02*
D03*
X468734Y428118D02*
D03*
X469226Y435205D02*
D03*
Y410795D02*
D03*
X474226Y404726D02*
D03*
X484266Y403039D02*
D03*
Y442961D02*
D03*
X451500Y441043D02*
D03*
X474226Y441274D02*
D03*
M02*
