G04 Layer_Color=15065295*
%FSLAX25Y25*%
%MOIN*%
G70*
G01*
G75*
%ADD29C,0.00984*%
%ADD30C,0.02362*%
%ADD31C,0.00787*%
%ADD32C,0.01000*%
G36*
X458511Y514341D02*
X456974D01*
X456769Y513303D01*
X456774Y513309D01*
X456785Y513314D01*
X456802Y513326D01*
X456830Y513342D01*
X456863Y513359D01*
X456902Y513381D01*
X456990Y513425D01*
X457101Y513470D01*
X457224Y513509D01*
X457357Y513536D01*
X457423Y513548D01*
X457545D01*
X457579Y513542D01*
X457623Y513536D01*
X457673Y513531D01*
X457729Y513520D01*
X457790Y513503D01*
X457923Y513464D01*
X457995Y513436D01*
X458067Y513398D01*
X458139Y513359D01*
X458211Y513314D01*
X458278Y513259D01*
X458345Y513198D01*
X458350Y513192D01*
X458361Y513181D01*
X458378Y513165D01*
X458400Y513137D01*
X458428Y513098D01*
X458456Y513059D01*
X458489Y513009D01*
X458522Y512954D01*
X458550Y512893D01*
X458583Y512826D01*
X458611Y512748D01*
X458639Y512671D01*
X458661Y512587D01*
X458678Y512493D01*
X458689Y512399D01*
X458694Y512299D01*
Y512293D01*
Y512277D01*
Y512249D01*
X458689Y512210D01*
X458683Y512165D01*
X458678Y512115D01*
X458667Y512054D01*
X458656Y511994D01*
X458622Y511849D01*
X458567Y511699D01*
X458533Y511622D01*
X458489Y511549D01*
X458444Y511472D01*
X458389Y511400D01*
X458384Y511394D01*
X458372Y511377D01*
X458350Y511355D01*
X458322Y511328D01*
X458284Y511294D01*
X458239Y511250D01*
X458184Y511211D01*
X458123Y511166D01*
X458056Y511122D01*
X457978Y511083D01*
X457895Y511044D01*
X457806Y511006D01*
X457712Y510978D01*
X457607Y510956D01*
X457495Y510939D01*
X457379Y510933D01*
X457329D01*
X457290Y510939D01*
X457246Y510945D01*
X457196Y510950D01*
X457135Y510956D01*
X457074Y510972D01*
X456935Y511006D01*
X456796Y511056D01*
X456724Y511089D01*
X456652Y511128D01*
X456585Y511172D01*
X456519Y511222D01*
X456513Y511228D01*
X456502Y511233D01*
X456491Y511255D01*
X456469Y511277D01*
X456441Y511305D01*
X456413Y511339D01*
X456380Y511383D01*
X456352Y511433D01*
X456319Y511483D01*
X456286Y511544D01*
X456224Y511677D01*
X456175Y511833D01*
X456158Y511916D01*
X456147Y512005D01*
X456641Y512043D01*
Y512038D01*
Y512027D01*
X456646Y512010D01*
X456652Y511982D01*
X456669Y511921D01*
X456691Y511838D01*
X456724Y511755D01*
X456769Y511660D01*
X456824Y511577D01*
X456890Y511500D01*
X456902Y511494D01*
X456924Y511472D01*
X456968Y511444D01*
X457029Y511411D01*
X457096Y511377D01*
X457179Y511350D01*
X457273Y511328D01*
X457379Y511322D01*
X457412D01*
X457435Y511328D01*
X457501Y511333D01*
X457579Y511355D01*
X457673Y511383D01*
X457767Y511427D01*
X457867Y511494D01*
X457912Y511533D01*
X457956Y511577D01*
X457962Y511583D01*
X457967Y511588D01*
X457978Y511605D01*
X457995Y511622D01*
X458034Y511683D01*
X458078Y511760D01*
X458117Y511855D01*
X458156Y511971D01*
X458184Y512110D01*
X458195Y512182D01*
Y512260D01*
Y512265D01*
Y512277D01*
Y512299D01*
X458189Y512326D01*
Y512360D01*
X458184Y512399D01*
X458167Y512487D01*
X458139Y512593D01*
X458101Y512698D01*
X458045Y512798D01*
X457967Y512893D01*
Y512898D01*
X457956Y512904D01*
X457928Y512931D01*
X457878Y512970D01*
X457812Y513015D01*
X457723Y513054D01*
X457623Y513092D01*
X457507Y513120D01*
X457440Y513131D01*
X457335D01*
X457290Y513126D01*
X457235Y513120D01*
X457168Y513103D01*
X457101Y513087D01*
X457029Y513059D01*
X456957Y513026D01*
X456952Y513020D01*
X456929Y513009D01*
X456896Y512981D01*
X456852Y512954D01*
X456807Y512915D01*
X456763Y512865D01*
X456713Y512815D01*
X456674Y512754D01*
X456230Y512815D01*
X456602Y514791D01*
X458511D01*
Y514341D01*
D02*
G37*
G36*
X455142Y512354D02*
X455664D01*
Y511921D01*
X455142D01*
Y511000D01*
X454671D01*
Y511921D01*
X453000D01*
Y512354D01*
X454759Y514841D01*
X455142D01*
Y512354D01*
D02*
G37*
G36*
X220415Y511000D02*
X219943D01*
Y514003D01*
X219938Y513997D01*
X219910Y513975D01*
X219877Y513941D01*
X219821Y513903D01*
X219760Y513853D01*
X219683Y513797D01*
X219594Y513736D01*
X219494Y513675D01*
X219488D01*
X219483Y513669D01*
X219449Y513647D01*
X219394Y513620D01*
X219327Y513586D01*
X219250Y513548D01*
X219166Y513509D01*
X219083Y513470D01*
X219000Y513436D01*
Y513892D01*
X219005D01*
X219017Y513903D01*
X219039Y513908D01*
X219067Y513925D01*
X219100Y513941D01*
X219139Y513964D01*
X219233Y514019D01*
X219344Y514080D01*
X219455Y514158D01*
X219572Y514247D01*
X219688Y514341D01*
X219694Y514347D01*
X219699Y514352D01*
X219716Y514369D01*
X219738Y514386D01*
X219788Y514441D01*
X219855Y514508D01*
X219921Y514585D01*
X219993Y514674D01*
X220055Y514763D01*
X220110Y514857D01*
X220415D01*
Y511000D01*
D02*
G37*
G36*
Y321000D02*
X219943D01*
Y324003D01*
X219938Y323997D01*
X219910Y323975D01*
X219877Y323941D01*
X219821Y323903D01*
X219760Y323853D01*
X219683Y323797D01*
X219594Y323736D01*
X219494Y323675D01*
X219488D01*
X219483Y323670D01*
X219449Y323647D01*
X219394Y323620D01*
X219327Y323586D01*
X219250Y323547D01*
X219166Y323509D01*
X219083Y323470D01*
X219000Y323436D01*
Y323892D01*
X219005D01*
X219017Y323903D01*
X219039Y323908D01*
X219067Y323925D01*
X219100Y323941D01*
X219139Y323964D01*
X219233Y324019D01*
X219344Y324080D01*
X219455Y324158D01*
X219572Y324247D01*
X219688Y324341D01*
X219694Y324347D01*
X219699Y324352D01*
X219716Y324369D01*
X219738Y324385D01*
X219788Y324441D01*
X219855Y324508D01*
X219921Y324585D01*
X219993Y324674D01*
X220055Y324763D01*
X220110Y324857D01*
X220415D01*
Y321000D01*
D02*
G37*
G36*
X458511Y324341D02*
X456974D01*
X456769Y323303D01*
X456774Y323309D01*
X456785Y323314D01*
X456802Y323325D01*
X456830Y323342D01*
X456863Y323359D01*
X456902Y323381D01*
X456990Y323425D01*
X457101Y323470D01*
X457224Y323509D01*
X457357Y323536D01*
X457423Y323547D01*
X457545D01*
X457579Y323542D01*
X457623Y323536D01*
X457673Y323531D01*
X457729Y323520D01*
X457790Y323503D01*
X457923Y323464D01*
X457995Y323436D01*
X458067Y323398D01*
X458139Y323359D01*
X458211Y323314D01*
X458278Y323259D01*
X458345Y323198D01*
X458350Y323192D01*
X458361Y323181D01*
X458378Y323165D01*
X458400Y323137D01*
X458428Y323098D01*
X458456Y323059D01*
X458489Y323009D01*
X458522Y322954D01*
X458550Y322892D01*
X458583Y322826D01*
X458611Y322748D01*
X458639Y322671D01*
X458661Y322587D01*
X458678Y322493D01*
X458689Y322399D01*
X458694Y322299D01*
Y322293D01*
Y322276D01*
Y322249D01*
X458689Y322210D01*
X458683Y322165D01*
X458678Y322115D01*
X458667Y322055D01*
X458656Y321993D01*
X458622Y321849D01*
X458567Y321699D01*
X458533Y321622D01*
X458489Y321549D01*
X458444Y321472D01*
X458389Y321400D01*
X458384Y321394D01*
X458372Y321377D01*
X458350Y321355D01*
X458322Y321327D01*
X458284Y321294D01*
X458239Y321250D01*
X458184Y321211D01*
X458123Y321166D01*
X458056Y321122D01*
X457978Y321083D01*
X457895Y321044D01*
X457806Y321006D01*
X457712Y320978D01*
X457607Y320956D01*
X457495Y320939D01*
X457379Y320933D01*
X457329D01*
X457290Y320939D01*
X457246Y320944D01*
X457196Y320950D01*
X457135Y320956D01*
X457074Y320972D01*
X456935Y321006D01*
X456796Y321056D01*
X456724Y321089D01*
X456652Y321128D01*
X456585Y321172D01*
X456519Y321222D01*
X456513Y321228D01*
X456502Y321233D01*
X456491Y321255D01*
X456469Y321277D01*
X456441Y321305D01*
X456413Y321339D01*
X456380Y321383D01*
X456352Y321433D01*
X456319Y321483D01*
X456286Y321544D01*
X456224Y321677D01*
X456175Y321832D01*
X456158Y321916D01*
X456147Y322005D01*
X456641Y322043D01*
Y322038D01*
Y322027D01*
X456646Y322010D01*
X456652Y321982D01*
X456669Y321921D01*
X456691Y321838D01*
X456724Y321755D01*
X456769Y321660D01*
X456824Y321577D01*
X456890Y321499D01*
X456902Y321494D01*
X456924Y321472D01*
X456968Y321444D01*
X457029Y321411D01*
X457096Y321377D01*
X457179Y321350D01*
X457273Y321327D01*
X457379Y321322D01*
X457412D01*
X457435Y321327D01*
X457501Y321333D01*
X457579Y321355D01*
X457673Y321383D01*
X457767Y321427D01*
X457867Y321494D01*
X457912Y321533D01*
X457956Y321577D01*
X457962Y321583D01*
X457967Y321588D01*
X457978Y321605D01*
X457995Y321622D01*
X458034Y321683D01*
X458078Y321760D01*
X458117Y321855D01*
X458156Y321971D01*
X458184Y322110D01*
X458195Y322182D01*
Y322260D01*
Y322265D01*
Y322276D01*
Y322299D01*
X458189Y322326D01*
Y322360D01*
X458184Y322399D01*
X458167Y322487D01*
X458139Y322593D01*
X458101Y322698D01*
X458045Y322798D01*
X457967Y322892D01*
Y322898D01*
X457956Y322904D01*
X457928Y322931D01*
X457878Y322970D01*
X457812Y323015D01*
X457723Y323054D01*
X457623Y323092D01*
X457507Y323120D01*
X457440Y323131D01*
X457335D01*
X457290Y323126D01*
X457235Y323120D01*
X457168Y323103D01*
X457101Y323087D01*
X457029Y323059D01*
X456957Y323026D01*
X456952Y323020D01*
X456929Y323009D01*
X456896Y322981D01*
X456852Y322954D01*
X456807Y322915D01*
X456763Y322865D01*
X456713Y322815D01*
X456674Y322754D01*
X456230Y322815D01*
X456602Y324791D01*
X458511D01*
Y324341D01*
D02*
G37*
G36*
X455142Y322354D02*
X455664D01*
Y321921D01*
X455142D01*
Y321000D01*
X454671D01*
Y321921D01*
X453000D01*
Y322354D01*
X454759Y324841D01*
X455142D01*
Y322354D01*
D02*
G37*
%LPC*%
G36*
X454671Y324075D02*
X453461Y322354D01*
X454671D01*
Y324075D01*
D02*
G37*
G36*
Y514075D02*
X453461Y512354D01*
X454671D01*
Y514075D01*
D02*
G37*
%LPD*%
D29*
X468862Y417882D02*
G03*
X468862Y417882I-492J0D01*
G01*
X275846Y370346D02*
G03*
X275846Y370346I-492J0D01*
G01*
X411339Y433024D02*
G03*
X411339Y433024I-492J0D01*
G01*
D30*
X285393Y365405D02*
G03*
X285393Y365405I-1181J0D01*
G01*
D31*
X475539Y450303D02*
Y450697D01*
X480461Y450303D02*
Y450697D01*
X462039Y437303D02*
Y437697D01*
X466961Y437303D02*
Y437697D01*
X454039Y437303D02*
Y437697D01*
X458961Y437303D02*
Y437697D01*
X480461Y468303D02*
Y468697D01*
X475539Y468303D02*
Y468697D01*
X397539Y468303D02*
Y468697D01*
X402461Y468303D02*
Y468697D01*
X410961Y421803D02*
Y422197D01*
X406039Y421803D02*
Y422197D01*
X402961Y421803D02*
Y422197D01*
X398039Y421803D02*
Y422197D01*
X300539Y365303D02*
Y365697D01*
X305461Y365303D02*
Y365697D01*
X308539Y365303D02*
Y365697D01*
X313461Y365303D02*
Y365697D01*
X309961Y347303D02*
Y347697D01*
X305039Y347303D02*
Y347697D01*
X256539Y370303D02*
Y370697D01*
X261461Y370303D02*
Y370697D01*
X248539Y370303D02*
Y370697D01*
X253461Y370303D02*
Y370697D01*
X264539Y370303D02*
Y370697D01*
X269461Y370303D02*
Y370697D01*
X229961Y356346D02*
Y356740D01*
X225039Y356346D02*
Y356740D01*
X280275Y349657D02*
Y369342D01*
X289724Y349657D02*
Y369342D01*
X280275D02*
X289724D01*
X280275Y349657D02*
X289724D01*
X290803Y372039D02*
X291197D01*
X290803Y376961D02*
X291197D01*
D32*
X224200Y366500D02*
Y371498D01*
X226699D01*
X227532Y370665D01*
Y368999D01*
X226699Y368166D01*
X224200D01*
X225866D02*
X227532Y366500D01*
X229198D02*
X230865D01*
X230031D01*
Y371498D01*
X229198Y370665D01*
X465932Y452165D02*
X465099Y452998D01*
X463433D01*
X462600Y452165D01*
Y448833D01*
X463433Y448000D01*
X465099D01*
X465932Y448833D01*
X467598D02*
X468431Y448000D01*
X470098D01*
X470931Y448833D01*
Y452165D01*
X470098Y452998D01*
X468431D01*
X467598Y452165D01*
Y451332D01*
X468431Y450499D01*
X470931D01*
X223500Y505498D02*
Y500500D01*
Y502999D01*
X226832D01*
Y505498D01*
Y500500D01*
X228498Y504665D02*
X229331Y505498D01*
X230998D01*
X231831Y504665D01*
Y503832D01*
X230998Y502999D01*
X231831Y502166D01*
Y501333D01*
X230998Y500500D01*
X229331D01*
X228498Y501333D01*
Y502166D01*
X229331Y502999D01*
X228498Y503832D01*
Y504665D01*
X229331Y502999D02*
X230998D01*
X407300Y485698D02*
X410632Y480700D01*
Y485698D02*
X407300Y480700D01*
X412298D02*
X413965D01*
X413131D01*
Y485698D01*
X412298Y484865D01*
X272500Y379298D02*
Y375133D01*
X273333Y374300D01*
X274999D01*
X275832Y375133D01*
Y379298D01*
X280831Y374300D02*
X277498D01*
X280831Y377632D01*
Y378465D01*
X279998Y379298D01*
X278331D01*
X277498Y378465D01*
X410900Y449798D02*
Y445633D01*
X411733Y444800D01*
X413399D01*
X414232Y445633D01*
Y449798D01*
X415898Y444800D02*
X417564D01*
X416731D01*
Y449798D01*
X415898Y448965D01*
X314500Y345000D02*
Y349998D01*
X316999D01*
X317832Y349165D01*
Y347499D01*
X316999Y346666D01*
X314500D01*
X316166D02*
X317832Y345000D01*
X319498Y349998D02*
X322831D01*
Y349165D01*
X319498Y345833D01*
Y345000D01*
X318000Y363000D02*
Y367998D01*
X320499D01*
X321332Y367165D01*
Y365499D01*
X320499Y364666D01*
X318000D01*
X319666D02*
X321332Y363000D01*
X326331Y367998D02*
X324664Y367165D01*
X322998Y365499D01*
Y363833D01*
X323831Y363000D01*
X325498D01*
X326331Y363833D01*
Y364666D01*
X325498Y365499D01*
X322998D01*
X298800Y375500D02*
Y380498D01*
X301299D01*
X302132Y379665D01*
Y377999D01*
X301299Y377166D01*
X298800D01*
X300466D02*
X302132Y375500D01*
X307131Y380498D02*
X303798D01*
Y377999D01*
X305465Y378832D01*
X306298D01*
X307131Y377999D01*
Y376333D01*
X306298Y375500D01*
X304631D01*
X303798Y376333D01*
X262800Y380500D02*
Y385498D01*
X265299D01*
X266132Y384665D01*
Y382999D01*
X265299Y382166D01*
X262800D01*
X264466D02*
X266132Y380500D01*
X270298D02*
Y385498D01*
X267798Y382999D01*
X271131D01*
X254800Y355500D02*
Y360498D01*
X257299D01*
X258132Y359665D01*
Y357999D01*
X257299Y357166D01*
X254800D01*
X256466D02*
X258132Y355500D01*
X259798Y359665D02*
X260631Y360498D01*
X262298D01*
X263131Y359665D01*
Y358832D01*
X262298Y357999D01*
X261465D01*
X262298D01*
X263131Y357166D01*
Y356333D01*
X262298Y355500D01*
X260631D01*
X259798Y356333D01*
X248000Y380500D02*
Y385498D01*
X250499D01*
X251332Y384665D01*
Y382999D01*
X250499Y382166D01*
X248000D01*
X249666D02*
X251332Y380500D01*
X256331D02*
X252998D01*
X256331Y383832D01*
Y384665D01*
X255498Y385498D01*
X253831D01*
X252998Y384665D01*
X471732Y400098D02*
X470066D01*
X470899D01*
Y395933D01*
X470066Y395100D01*
X469233D01*
X468400Y395933D01*
X473398Y395100D02*
X475065D01*
X474231D01*
Y400098D01*
X473398Y399265D01*
X223500Y343998D02*
Y339000D01*
Y341499D01*
X226832D01*
Y343998D01*
Y339000D01*
X228498Y339833D02*
X229331Y339000D01*
X230998D01*
X231831Y339833D01*
Y343165D01*
X230998Y343998D01*
X229331D01*
X228498Y343165D01*
Y342332D01*
X229331Y341499D01*
X231831D01*
X400832Y436165D02*
X399999Y436998D01*
X398333D01*
X397500Y436165D01*
Y432833D01*
X398333Y432000D01*
X399999D01*
X400832Y432833D01*
X402498Y436165D02*
X403331Y436998D01*
X404998D01*
X405831Y436165D01*
Y435332D01*
X404998Y434499D01*
X405831Y433666D01*
Y432833D01*
X404998Y432000D01*
X403331D01*
X402498Y432833D01*
Y433666D01*
X403331Y434499D01*
X402498Y435332D01*
Y436165D01*
X403331Y434499D02*
X404998D01*
X406532Y411165D02*
X405699Y411998D01*
X404033D01*
X403200Y411165D01*
Y407833D01*
X404033Y407000D01*
X405699D01*
X406532Y407833D01*
X408198Y411998D02*
X411531D01*
Y411165D01*
X408198Y407833D01*
Y407000D01*
X456832Y451665D02*
X455999Y452498D01*
X454333D01*
X453500Y451665D01*
Y448333D01*
X454333Y447500D01*
X455999D01*
X456832Y448333D01*
X461831Y452498D02*
X460164Y451665D01*
X458498Y449999D01*
Y448333D01*
X459331Y447500D01*
X460998D01*
X461831Y448333D01*
Y449166D01*
X460998Y449999D01*
X458498D01*
X462532Y426665D02*
X461699Y427498D01*
X460033D01*
X459200Y426665D01*
Y423333D01*
X460033Y422500D01*
X461699D01*
X462532Y423333D01*
X467531Y427498D02*
X464198D01*
Y424999D01*
X465865Y425832D01*
X466698D01*
X467531Y424999D01*
Y423333D01*
X466698Y422500D01*
X465031D01*
X464198Y423333D01*
X387932Y470165D02*
X387099Y470998D01*
X385433D01*
X384600Y470165D01*
Y466833D01*
X385433Y466000D01*
X387099D01*
X387932Y466833D01*
X392098Y466000D02*
Y470998D01*
X389598Y468499D01*
X392931D01*
X477132Y482665D02*
X476299Y483498D01*
X474633D01*
X473800Y482665D01*
Y479333D01*
X474633Y478500D01*
X476299D01*
X477132Y479333D01*
X478798Y482665D02*
X479631Y483498D01*
X481298D01*
X482131Y482665D01*
Y481832D01*
X481298Y480999D01*
X480465D01*
X481298D01*
X482131Y480166D01*
Y479333D01*
X481298Y478500D01*
X479631D01*
X478798Y479333D01*
X288332Y385665D02*
X287499Y386498D01*
X285833D01*
X285000Y385665D01*
Y382333D01*
X285833Y381500D01*
X287499D01*
X288332Y382333D01*
X289998Y381500D02*
X291665D01*
X290831D01*
Y386498D01*
X289998Y385665D01*
M02*
