G04 Layer_Physical_Order=1*
G04 Layer_Color=11767835*
%FSLAX25Y25*%
%MOIN*%
G70*
G01*
G75*
%ADD10R,0.05709X0.04528*%
G04:AMPARAMS|DCode=11|XSize=15.75mil|YSize=53.15mil|CornerRadius=3.94mil|HoleSize=0mil|Usage=FLASHONLY|Rotation=90.000|XOffset=0mil|YOffset=0mil|HoleType=Round|Shape=RoundedRectangle|*
%AMROUNDEDRECTD11*
21,1,0.01575,0.04528,0,0,90.0*
21,1,0.00787,0.05315,0,0,90.0*
1,1,0.00787,0.02264,0.00394*
1,1,0.00787,0.02264,-0.00394*
1,1,0.00787,-0.02264,-0.00394*
1,1,0.00787,-0.02264,0.00394*
%
%ADD11ROUNDEDRECTD11*%
G04:AMPARAMS|DCode=12|XSize=74.8mil|YSize=74.8mil|CornerRadius=18.7mil|HoleSize=0mil|Usage=FLASHONLY|Rotation=270.000|XOffset=0mil|YOffset=0mil|HoleType=Round|Shape=RoundedRectangle|*
%AMROUNDEDRECTD12*
21,1,0.07480,0.03740,0,0,270.0*
21,1,0.03740,0.07480,0,0,270.0*
1,1,0.03740,-0.01870,-0.01870*
1,1,0.03740,-0.01870,0.01870*
1,1,0.03740,0.01870,0.01870*
1,1,0.03740,0.01870,-0.01870*
%
%ADD12ROUNDEDRECTD12*%
G04:AMPARAMS|DCode=13|XSize=70.87mil|YSize=74.8mil|CornerRadius=17.72mil|HoleSize=0mil|Usage=FLASHONLY|Rotation=270.000|XOffset=0mil|YOffset=0mil|HoleType=Round|Shape=RoundedRectangle|*
%AMROUNDEDRECTD13*
21,1,0.07087,0.03937,0,0,270.0*
21,1,0.03543,0.07480,0,0,270.0*
1,1,0.03543,-0.01969,-0.01772*
1,1,0.03543,-0.01969,0.01772*
1,1,0.03543,0.01969,0.01772*
1,1,0.03543,0.01969,-0.01772*
%
%ADD13ROUNDEDRECTD13*%
G04:AMPARAMS|DCode=14|XSize=82.68mil|YSize=62.99mil|CornerRadius=15.75mil|HoleSize=0mil|Usage=FLASHONLY|Rotation=90.000|XOffset=0mil|YOffset=0mil|HoleType=Round|Shape=RoundedRectangle|*
%AMROUNDEDRECTD14*
21,1,0.08268,0.03150,0,0,90.0*
21,1,0.05118,0.06299,0,0,90.0*
1,1,0.03150,0.01575,0.02559*
1,1,0.03150,0.01575,-0.02559*
1,1,0.03150,-0.01575,-0.02559*
1,1,0.03150,-0.01575,0.02559*
%
%ADD14ROUNDEDRECTD14*%
%ADD15O,0.06693X0.02362*%
%ADD16R,0.04528X0.05709*%
G04:AMPARAMS|DCode=17|XSize=57.09mil|YSize=19.69mil|CornerRadius=4.92mil|HoleSize=0mil|Usage=FLASHONLY|Rotation=0.000|XOffset=0mil|YOffset=0mil|HoleType=Round|Shape=RoundedRectangle|*
%AMROUNDEDRECTD17*
21,1,0.05709,0.00984,0,0,0.0*
21,1,0.04724,0.01969,0,0,0.0*
1,1,0.00984,0.02362,-0.00492*
1,1,0.00984,-0.02362,-0.00492*
1,1,0.00984,-0.02362,0.00492*
1,1,0.00984,0.02362,0.00492*
%
%ADD17ROUNDEDRECTD17*%
G04:AMPARAMS|DCode=18|XSize=57.09mil|YSize=19.69mil|CornerRadius=4.92mil|HoleSize=0mil|Usage=FLASHONLY|Rotation=90.000|XOffset=0mil|YOffset=0mil|HoleType=Round|Shape=RoundedRectangle|*
%AMROUNDEDRECTD18*
21,1,0.05709,0.00984,0,0,90.0*
21,1,0.04724,0.01969,0,0,90.0*
1,1,0.00984,0.00492,0.02362*
1,1,0.00984,0.00492,-0.02362*
1,1,0.00984,-0.00492,-0.02362*
1,1,0.00984,-0.00492,0.02362*
%
%ADD18ROUNDEDRECTD18*%
G04:AMPARAMS|DCode=19|XSize=220.47mil|YSize=82.68mil|CornerRadius=20.67mil|HoleSize=0mil|Usage=FLASHONLY|Rotation=0.000|XOffset=0mil|YOffset=0mil|HoleType=Round|Shape=RoundedRectangle|*
%AMROUNDEDRECTD19*
21,1,0.22047,0.04134,0,0,0.0*
21,1,0.17913,0.08268,0,0,0.0*
1,1,0.04134,0.08957,-0.02067*
1,1,0.04134,-0.08957,-0.02067*
1,1,0.04134,-0.08957,0.02067*
1,1,0.04134,0.08957,0.02067*
%
%ADD19ROUNDEDRECTD19*%
%ADD20C,0.01600*%
%ADD21C,0.00600*%
%ADD22C,0.01200*%
%ADD23C,0.02000*%
%ADD24C,0.01800*%
%ADD25R,0.06000X0.06000*%
%ADD26C,0.06000*%
%ADD27C,0.20000*%
%ADD28C,0.02400*%
D10*
X478000Y446957D02*
D03*
Y454043D02*
D03*
X464500Y433957D02*
D03*
Y441043D02*
D03*
X456500Y433957D02*
D03*
Y441043D02*
D03*
X478000Y472043D02*
D03*
Y464957D02*
D03*
X400000Y464957D02*
D03*
Y472043D02*
D03*
X408500Y425543D02*
D03*
Y418457D02*
D03*
X400500Y425543D02*
D03*
Y418457D02*
D03*
X303000Y361957D02*
D03*
Y369043D02*
D03*
X311000Y361957D02*
D03*
Y369043D02*
D03*
X307500Y351043D02*
D03*
Y343957D02*
D03*
X259000Y366957D02*
D03*
Y374043D02*
D03*
X251000Y366957D02*
D03*
Y374043D02*
D03*
X267000Y366957D02*
D03*
Y374043D02*
D03*
X227500Y360087D02*
D03*
Y353000D02*
D03*
D11*
X473734Y428118D02*
D03*
Y417882D02*
D03*
Y420441D02*
D03*
Y425559D02*
D03*
Y423000D02*
D03*
D12*
X484266Y427724D02*
D03*
Y418276D02*
D03*
D13*
Y437961D02*
D03*
Y408039D02*
D03*
D14*
X474226Y435205D02*
D03*
Y410795D02*
D03*
D15*
X275354Y367000D02*
D03*
Y362000D02*
D03*
Y357000D02*
D03*
Y352000D02*
D03*
X294645Y367000D02*
D03*
Y362000D02*
D03*
Y357000D02*
D03*
Y352000D02*
D03*
D16*
X294543Y374500D02*
D03*
X287457D02*
D03*
D17*
X416358Y433024D02*
D03*
Y429874D02*
D03*
Y426724D02*
D03*
Y423575D02*
D03*
Y420425D02*
D03*
Y417276D02*
D03*
Y414126D02*
D03*
Y410976D02*
D03*
X448642D02*
D03*
Y414126D02*
D03*
Y417276D02*
D03*
Y420425D02*
D03*
Y423575D02*
D03*
Y426724D02*
D03*
Y429874D02*
D03*
Y433024D02*
D03*
D18*
X421476Y405858D02*
D03*
X424626D02*
D03*
X427776D02*
D03*
X430925D02*
D03*
X434075D02*
D03*
X437224D02*
D03*
X440374D02*
D03*
X443524D02*
D03*
Y438142D02*
D03*
X440374D02*
D03*
X437224D02*
D03*
X434075D02*
D03*
X430925D02*
D03*
X427776D02*
D03*
X424626D02*
D03*
X421476D02*
D03*
D19*
X420299Y465000D02*
D03*
X457701D02*
D03*
D20*
X302043Y369043D02*
X303000D01*
X300000Y367000D02*
X302043Y369043D01*
X294645Y367000D02*
X300000D01*
X399543Y425543D02*
X401000D01*
X332500Y358500D02*
X399543Y425543D01*
X332500Y320500D02*
Y358500D01*
X401489Y425543D02*
X409500D01*
X242500Y318000D02*
X312500D01*
X237500Y323000D02*
X242500Y318000D01*
X294645Y367000D02*
Y378355D01*
X291000Y367000D02*
X294645D01*
X285000Y361000D02*
X291000Y367000D01*
X285000Y350000D02*
Y361000D01*
Y350000D02*
X291043Y343957D01*
X307500D01*
X259000Y374043D02*
X267000D01*
X251000D02*
X259000D01*
X291000Y382000D02*
X294645Y378355D01*
X274957Y382000D02*
X291000D01*
X267000Y374043D02*
X274957Y382000D01*
X312500Y318000D02*
X330000D01*
X312500D02*
Y338957D01*
X307500Y343957D02*
X312500Y338957D01*
X303000Y369043D02*
X311000D01*
X330000Y318000D02*
X332500Y320500D01*
X237500Y323000D02*
Y333000D01*
X409500Y425543D02*
X410681Y426724D01*
X416858D01*
Y423575D02*
Y426724D01*
X449142D01*
X456500Y433957D02*
X464500D01*
X449142Y426724D02*
Y429874D01*
X452417D01*
X456500Y433957D01*
D21*
X424240Y447000D02*
X431425Y439815D01*
X296000Y447000D02*
X424240D01*
X232500Y383500D02*
X296000Y447000D01*
X423591Y444500D02*
X428276Y439815D01*
X300000Y444500D02*
X423591D01*
X236000Y380500D02*
X300000Y444500D01*
X446500Y399500D02*
Y407705D01*
X430000Y410000D02*
X444205D01*
X446500Y407705D01*
X427776Y407776D02*
X430000Y410000D01*
X427776Y405858D02*
Y407776D01*
X416358Y414126D02*
X416858D01*
X414626D02*
X416358D01*
X342500Y328000D02*
Y342000D01*
X414626Y414126D01*
X298500Y342000D02*
X307500Y333000D01*
X267000Y342000D02*
X298500D01*
X243500Y365500D02*
X267000Y342000D01*
X290000Y338000D02*
X292500Y335500D01*
X264000Y338000D02*
X290000D01*
X236000Y366000D02*
X264000Y338000D01*
X298000Y340000D02*
X302500Y335500D01*
X265500Y340000D02*
X298000D01*
X240000Y365500D02*
X265500Y340000D01*
X240000Y365500D02*
Y378500D01*
X272500Y328000D02*
X277500Y333000D01*
X265000Y328000D02*
X272500D01*
X262500Y330500D02*
X265000Y328000D01*
X262500Y330500D02*
Y336000D01*
X232500Y366000D02*
X262500Y336000D01*
X243500Y376500D02*
X305142Y438142D01*
X243500Y365500D02*
Y376500D01*
X240000Y378500D02*
X303396Y441896D01*
X236000Y366000D02*
Y380500D01*
X232500Y366000D02*
Y383500D01*
X292500Y328000D02*
Y335500D01*
X423045Y441896D02*
X425126Y439815D01*
X303396Y441896D02*
X423045D01*
X292500Y328000D02*
X297500Y323000D01*
X302500Y328000D02*
X307500Y323000D01*
X302500Y328000D02*
Y335500D01*
X307500Y351043D02*
X313457D01*
X317500Y347000D01*
X294645Y352000D02*
X300000D01*
X300957Y351043D02*
X307500D01*
X300000Y352000D02*
X300957Y351043D01*
X311000Y361957D02*
X322000Y350957D01*
X317500Y323000D02*
X322000Y327500D01*
Y350957D01*
X294645Y357000D02*
X306043D01*
X311000Y361957D01*
X294645Y362000D02*
X302957D01*
X323200Y363200D02*
X393024Y433024D01*
X323200Y327300D02*
Y363200D01*
Y327300D02*
X327500Y323000D01*
X317500Y333000D02*
Y347000D01*
X393024Y433024D02*
X416858D01*
X327500Y333000D02*
Y360000D01*
X397374Y429874D01*
X416858D01*
X382500Y335500D02*
X446500Y399500D01*
X382500Y328000D02*
Y335500D01*
X347500Y333000D02*
Y343500D01*
X414976Y410976D01*
X352500Y328000D02*
Y335500D01*
X347500Y323000D02*
X352500Y328000D01*
X389000Y372000D02*
X392941D01*
X425126Y404185D01*
X337500Y323000D02*
X342500Y328000D01*
X352500Y335500D02*
X389000Y372000D01*
X414976Y410976D02*
X416858D01*
X452100Y446600D02*
X478143D01*
X449142Y443642D02*
X452100Y446600D01*
X478143D02*
X478500Y446957D01*
X447500Y333000D02*
X447642Y333142D01*
Y362000D01*
X449142Y363500D02*
Y410976D01*
X447642Y362000D02*
X449142Y363500D01*
X372000Y338460D02*
X437724Y404185D01*
X372000Y327500D02*
Y338460D01*
X367500Y323000D02*
X372000Y327500D01*
X373500Y336811D02*
X440874Y404185D01*
X373500Y322000D02*
Y336811D01*
X370000Y318500D02*
X373500Y322000D01*
X362000Y318500D02*
X370000D01*
X357500Y323000D02*
X362000Y318500D01*
X377500Y323000D02*
X382500Y328000D01*
X357500Y333000D02*
X367000Y342500D01*
X369740D01*
X367500Y333000D02*
Y337110D01*
X305142Y438142D02*
X421976D01*
X367500Y337110D02*
X434575Y404185D01*
X369740Y342500D02*
X431425Y404185D01*
X425126D02*
Y405858D01*
X449142Y433024D02*
Y443642D01*
D22*
X473000Y454000D02*
X478457D01*
X478500Y454043D01*
X401000Y413457D02*
Y418457D01*
X409000Y413457D02*
Y418457D01*
X443524Y438142D02*
Y443142D01*
X434075Y433142D02*
Y438142D01*
X421476Y405858D02*
Y410858D01*
X443524Y400858D02*
Y405858D01*
X464500Y441043D02*
X469500D01*
X270354Y352000D02*
X275354D01*
X251000Y366957D02*
X260957Y357000D01*
X275354D01*
X259000Y366957D02*
X263957Y362000D01*
X275354D01*
X267043Y367000D02*
X275354D01*
X478500Y446957D02*
X479000Y446457D01*
Y419500D02*
Y446457D01*
X477382Y417882D02*
X479000Y419500D01*
X473734Y417882D02*
X477382D01*
X473000Y472043D02*
X478000D01*
X287457Y369500D02*
Y374500D01*
X449142Y417276D02*
X454142D01*
X449142Y414126D02*
X454142D01*
X416858Y417276D02*
X421858D01*
X416858Y420425D02*
X421858D01*
X440374Y438142D02*
Y454874D01*
X450500Y465000D02*
X457701D01*
X440374Y454874D02*
X450500Y465000D01*
X437224Y438142D02*
Y455276D01*
X427500Y465000D02*
X437224Y455276D01*
X420299Y465000D02*
X427500D01*
X400043D02*
X420299D01*
X457701D02*
X457744Y464957D01*
X478000D01*
X395000Y472043D02*
X400000D01*
X468734Y428118D02*
X473734D01*
X469226Y435205D02*
X474226D01*
X469226Y410795D02*
X474226D01*
Y404726D02*
Y410795D01*
X484266Y403039D02*
Y408039D01*
Y437961D02*
Y442961D01*
X451500Y441043D02*
X456500D01*
X474226Y435205D02*
Y441274D01*
D23*
X247500Y323000D02*
Y333000D01*
X481957Y446957D02*
X485000Y450000D01*
X478500Y446957D02*
X481957D01*
X329000Y486000D02*
X478000D01*
X227500Y384500D02*
X329000Y486000D01*
X227500Y360087D02*
Y384500D01*
Y353000D02*
X247500Y333000D01*
X485000Y450000D02*
Y479000D01*
X478000Y486000D02*
X485000Y479000D01*
X484266Y408039D02*
Y418276D01*
Y427724D02*
Y437961D01*
D24*
X449817Y420600D02*
X473575D01*
X449642Y420425D02*
X449817Y420600D01*
X449500Y423000D02*
X473734D01*
D25*
X227500Y323000D02*
D03*
Y513000D02*
D03*
D26*
X237500Y323000D02*
D03*
X247500D02*
D03*
X257500D02*
D03*
X267500D02*
D03*
X277500D02*
D03*
X287500D02*
D03*
X297500D02*
D03*
X307500D02*
D03*
X317500D02*
D03*
X327500D02*
D03*
X337500D02*
D03*
X347500D02*
D03*
X357500D02*
D03*
X367500D02*
D03*
X377500D02*
D03*
X387500D02*
D03*
X397500D02*
D03*
X407500D02*
D03*
X417500D02*
D03*
X427500D02*
D03*
X437500D02*
D03*
X447500D02*
D03*
X227500Y333000D02*
D03*
X237500D02*
D03*
X247500D02*
D03*
X257500D02*
D03*
X267500D02*
D03*
X277500D02*
D03*
X287500D02*
D03*
X297500D02*
D03*
X307500D02*
D03*
X317500D02*
D03*
X327500D02*
D03*
X337500D02*
D03*
X347500D02*
D03*
X357500D02*
D03*
X367500D02*
D03*
X377500D02*
D03*
X387500D02*
D03*
X397500D02*
D03*
X407500D02*
D03*
X417500D02*
D03*
X427500D02*
D03*
X437500D02*
D03*
X447500D02*
D03*
X237500Y513000D02*
D03*
X247500D02*
D03*
X257500D02*
D03*
X267500D02*
D03*
X277500D02*
D03*
X287500D02*
D03*
X297500D02*
D03*
X307500D02*
D03*
X317500D02*
D03*
X327500D02*
D03*
X337500D02*
D03*
X347500D02*
D03*
X357500D02*
D03*
X367500D02*
D03*
X377500D02*
D03*
X387500D02*
D03*
X397500D02*
D03*
X407500D02*
D03*
X417500D02*
D03*
X427500D02*
D03*
X437500D02*
D03*
X447500D02*
D03*
X227500Y523000D02*
D03*
X237500D02*
D03*
X247500D02*
D03*
X257500D02*
D03*
X267500D02*
D03*
X277500D02*
D03*
X287500D02*
D03*
X297500D02*
D03*
X307500D02*
D03*
X317500D02*
D03*
X327500D02*
D03*
X337500D02*
D03*
X347500D02*
D03*
X357500D02*
D03*
X367500D02*
D03*
X377500D02*
D03*
X387500D02*
D03*
X397500D02*
D03*
X407500D02*
D03*
X417500D02*
D03*
X427500D02*
D03*
X437500D02*
D03*
X447500D02*
D03*
D27*
X467500Y505500D02*
D03*
Y340500D02*
D03*
X207500Y518000D02*
D03*
Y328000D02*
D03*
D28*
X473000Y454000D02*
D03*
X401000Y413457D02*
D03*
X409000D02*
D03*
X443524Y443142D02*
D03*
X434075Y433142D02*
D03*
X421476Y410858D02*
D03*
X443524Y400858D02*
D03*
X469500Y441043D02*
D03*
X270354Y352000D02*
D03*
X473000Y472043D02*
D03*
X287457Y369500D02*
D03*
X454142Y417276D02*
D03*
Y414126D02*
D03*
X421858Y417276D02*
D03*
Y420425D02*
D03*
X395000Y472043D02*
D03*
X468734Y428118D02*
D03*
X469226Y435205D02*
D03*
Y410795D02*
D03*
X474226Y404726D02*
D03*
X484266Y403039D02*
D03*
Y442961D02*
D03*
X451500Y441043D02*
D03*
X474226Y441274D02*
D03*
M02*
