M48
;Layer_Color=6321
;FILE_FORMAT=2:5
INCH,LZ
;TYPE=PLATED
T1F00S00C0.01200
T2F00S00C0.04000
T3F00S00C0.12500
%
T01
X0270354Y0352
X0287457Y03695
X0401Y0413457
X0409
X0421476Y0410858
X0421858Y0417276
Y0420425
X0434075Y0433142
X0443524Y0443142
X04515Y0441043
X0454142Y0417276
Y0414126
X0443524Y0400858
X0468734Y0428118
X0469226Y0435205
X04695Y0441043
X0474226Y0441274
X0484266Y0442961
X0473Y0454
X0469226Y0410795
X0474226Y0404726
X0484266Y0403039
X0473Y0472043
X0395Y0472043
T02
X02275Y0323
X02375
X02475
X02575
X02675
X02775
X02875
X02975
X03075
Y0333
X02975
X02875
X02775
X02675
X02575
X02475
X02375
X02275
X03175
Y0323
X03275
X03375
X03475
X03575
X03675
X03775
X03875
X03975
X04075
X04175
X04275
X04375
X04475
Y0333
X04375
X04275
X04175
X04075
X03975
X03875
X03775
X03675
X03575
X03475
X03375
X03275
Y0513
X03175
Y0523
X03275
X03375
Y0513
X03475
X03575
X03675
X03775
X03875
X03975
X04075
X04175
X04275
X04375
X04475
Y0523
X04375
X04275
X04175
X04075
X03975
X03875
X03775
X03675
X03575
X03475
X03075
Y0513
X02975
X02875
X02775
X02675
X02575
X02475
X02375
X02275
Y0523
X02375
X02475
X02575
X02675
X02775
X02875
X02975
T03
X02075Y0328
X04675Y03405
Y05055
X02075Y0518
M30
